<?xml version="1.0" encoding="UTF-8"?>
<svg id="Layer_2" data-name="Layer 2" xmlns="http://www.w3.org/2000/svg" viewBox="0 0 372.93 476.47">
  <defs>
    <style>
      .cls-1 {
        fill: #fff;
      }

      .cls-2 {
        fill: #c2596e;
      }

      .cls-3 {
        fill: #a2cfe0;
      }

      .cls-4 {
        fill: none;
      }

      .cls-5 {
        fill: #88e8e6;
      }
    </style>
  </defs>
  <g id="badges">
    <g>
      <path class="cls-2" d="m100.73,158.05c-6.67,2.02-3.41,8.28-.89,13.04.23.24.46.5.69.76.1-3.7,1.6-6.08,3.42-9.29,0-.02.02-.04.03-.05.04-1.27.07-2.55.01-3.83-.02-.42-.05-.84-.08-1.26-1.05.16-2.1.31-3.18.63Z"/>
      <path class="cls-2" d="m92.1,137.92c-.19-.49-.42-.98-.65-1.47-.7,2.75-1.1,5.59-1.39,8.4-.3,2.9-.36,5.65-.22,8.34.68-.91,1.41-1.76,2.04-2.51.9-1.07,2.22-2.79,3.68-4.18-.03-.08-.06-.16-.08-.24-.54-1.71-.87-3.47-1.69-5.08-.57-1.11-1.23-2.09-1.69-3.26Z"/>
      <path class="cls-2" d="m183.6,255.54c-3.14-4.18-6.19-8.95-11.12-11.39-4.21-2.08-10.71.22-12.78,4.51.27.87.56,1.73.9,2.56,2.6,6.37,4.06,13.15,6.93,19.35.61,1.31,1.13,2.62,1.74,3.88,2.35-2.21,6.56-2.63,9.54-2.14,4.92.8,9.33,2.86,12.85,6.15.81.47,1.62.96,2.43,1.38,3.24,1.69,6.57,3.31,10.14,4.21,5.95,1.5,12.16,1.56,17.69,4.17-.55-2.63-1.1-5.26-1.63-7.9-.66-3.26-1.39-6.5-2.13-9.73-1.84-.47-3.69-.95-5.53-1.45-5.44-1.48-10.92-2.88-16.01-5.34-4.47-2.16-9.98-4.17-13.04-8.26Z"/>
      <path class="cls-5" d="m97.74,124.9c-.93,1.38-1.97,2.66-2.93,4,1.78,1.98,3.64,3.83,5.64,5.44,5.86,4.69,11.99,9.17,17.39,14.4.1.1.21.2.32.3.89-.76,1.76-1.55,2.63-2.27.37-.31.75-.62,1.13-.92-4.08-3.23-8.22-6.43-12.22-9.84-3.99-3.41-8.56-6.92-11.96-11.1Z"/>
      <path class="cls-2" d="m211.79,242.12c-5.61-1.04-11.22-2.12-16.59-4.07-4.96-1.8-7.18-3.86-9.37-8.66-2.53-5.55-7.84-6.59-13.6-6-3.05.31-5.83,1.4-8.25,3.27-1.24.96-3.93,2.57-4.94,4.1,0,.09,0,.17-.01.25-.03.38-.15.69-.32.94-.5,2.9-.64,5.95-.42,8.98,4.86-5.02,13.56-6.4,19.45-2.11,2.19,1.6,4.33,3.5,6.29,5.38,1.61,1.55,2.59,3.26,3.67,5.01,2.87,1.89,5.87,3.49,8.83,4.38,6.32,1.91,12.53,3.47,18.96,4.81-.1-.5-.22-1-.32-1.51-.91-4.58-2.53-9.73-3.37-14.77Z"/>
      <path class="cls-2" d="m142.04,130.93c-3.66,7.33-7.99,13.07-14.22,18.39-2.97,2.53-5.92,5.25-9.12,7.49-2.87,2.01-5.23,3.02-6.98,6.28-1.38,2.55-3.29,5.53-3.86,8.35-.41,2.05.02,4.75,1.28,6.81,2.25-.04,3.96.85,6.34,1.39,4.68,1.05,7.15-3.12,11.55-3.69,1.36-.17,2.74-.15,4.08.06,1.36-3.56,3.62-6.49,5.74-9.77,1.86-2.88,2.69-6.91,4.99-9.35.97-1.03,2.32.23,2.08,1.35-.78,3.53-.51,7.18-1.52,10.67-1.07,3.69-2.64,7.14-4.02,10.69.87.9,1.58,1.96,2.09,3.17,1.32-1.04,2.61-2.11,3.87-3.23.99-2.45,1.16-5.99,1.62-7.72,1.1-4.15,2.51-8.18,4.2-12.13,2.55-5.93,4.33-14.44,9.19-18.88,4.84-4.43,16.34-6.92,16.11-15.2-.14-4.86-6.42-2.91-9.83-3.9-3.51-1.02-5.38-3.51-8.19-5.56-9.69-7.08-12.51,9.04-15.39,14.82Zm17.18-1.84c.93-.78,1.88-1.12,2.95-1.64,4.04-1.99,6.4,4.57,2.1,5.74-1.7.46-3.42.94-5.18,1.25-1.2.22-1.93.66-3.02,1.2-.52.26-1.06.27-1.54.57-.67.41-1.19-.45-.91-1.01.33-.67.85-1.19,1.27-1.79.61-.87,1.34-1.65,2.1-2.38.71-.67,1.49-1.31,2.23-1.94Z"/>
      <path class="cls-2" d="m128.22,214.87c1.15-4.23,3.97-8.95,8.06-10.63,3.25-1.33,5.95-1.76,8.64-4.12,2.66-2.34,4.94-5.03,7.38-7.58,3.57-3.72,9.73-7.59,14.85-8.55,2.52-.47,5.25-.29,7.79-.61,4.34-.54,6-1.49,7.71-5.15.18-.39.68-.37.82.04,1.43,4.1.42,8.27-3.66,10.66-2.43,1.42-5.47,1.64-8.19,1.93-3.1.33-5.28,1.42-7.87,3.1-4.92,3.18-8.28,7.96-12.45,11.92.5.29.98.6,1.44.97.4.32.76.65,1.1.98.75-1.01,1.57-2,2.35-3.11,1.96-2.79,4.25-4.44,7.1-6.33,6.06-4.01,13.56-2.48,20.26-5.06,5.75-2.21,17.14-10.69,9.29-17.14-1.89-1.55-4.12-2.78-5.06-5.16-1.07-2.71.2-5.76-1.2-8.34-1.62-3.01-6.55-5.06-9.84-5.17-4.54-.15-6.95,3-9.7,6.02-4.43,4.87-7.87,10.6-12.53,15.29-4.53,4.57-9.59,8.87-15.03,12.32-2.47,1.57-5.11,3.33-7.94,4.17-2.48.74-4.92.44-7.47.44-7.91-.01-12.37,4.96-12.17,12.74.08,3.1.88,6.78,3.45,8.64,2.65-1.71,6-2.51,9.04-2.6,1.36-.04,2.59.13,3.82.34Z"/>
      <path class="cls-2" d="m201.03,85.04c-1.74,1.11-3.52,2.58-5.18,3.82-7.36,5.46-14.15,9.77-23.42,11.11-4.37.63-12.04,1.78-12.7,7.45-.09.79.05,1.51.28,2.2,2.7,1.78,4.62,4.58,7.78,5.47,1.92.54,3.95.37,5.91.48.38-.4.89-.71,1.54-.87.73-.18,1.35-.66,2.05-.95.74-.31,1.51-.5,2.24-.81,1.68-.72,3.39-1.91,4.5-3.37.53-.7,1.63-.38,1.62.53,0,2.32-1.68,5.13-2.98,6.98-.52.74-1.24,1.52-2.07,2.19.29.43.55.88.77,1.36,8.89-1.8,13.97-12.9,17.96-20.17,2.38-4.35,3.17-9.34,3.07-14.27-.04-2.11.44-2.29-1.37-1.14Z"/>
      <path class="cls-2" d="m134.7,186.88c-1.04-4.72-5.74-5.15-9.2-3.02-2.28,1.4-4.44,2.5-7.17,2.75-3.17.29-5.58-1.67-8.55-1.67-3.2,0-6.4,4.41-6.89,7.3-.52,3.15.75,5.79,2.19,8.46.27.51.52,1,.75,1.5.96-3.51,2.8-6.69,5.61-8.82,6.8-5.15,15.17-1.52,22-5.68.42-.26.84-.54,1.26-.81Z"/>
      <path class="cls-2" d="m100.73,220.06c-5.18-5.23-8.97-10.89-13.37-16.71-.35-.46.13-.98.63-.74,6.07,2.99,12.21,7.06,17.27,11.77-.52-1.16-1.05-2.32-1.56-3.48-2.9-6.59-7.8-11.38-7.38-18.99.17-3.1,1.75-6.42,4.06-9.02-.69-.77-1.33-1.57-2-2.39-1.23-1.5-2.78-4.29-4.55-5.17-6.89-3.42-9.03,8.11-11.8,11.93-1.08,1.48-2.45,2.59-4.24,3.01-1.88.44-4.45-.71-6.04.15-.2.18-.4.35-.61.51-.24.28-.45.65-.59,1.14-.6,2.01.66,5.91,1.59,7.65,1.57,2.93,4.26,5.34,6.89,7.29,9.35,6.94,19.35,14.28,26.76,23.28-.06-.37-.11-.75-.15-1.14-.4-4.25-2.02-6.19-4.89-9.09Z"/>
      <path class="cls-2" d="m91.12,64.58c-1.13.84-2,2.94-2.76,4.13-4.02,6.33-7.84,11.01-14.32,14.87-4.41,2.63-9.45,4.62-10.02,10.19-.43,4.14.66,7.22,3.48,9.54,1.5.34,2.96.99,4.45,1.59,2.08.83,4.92,1.95,7.17,1.2,1.57-.53,3.08-2.13,4.52-2.93.16-.09.32-.16.49-.24.05-.51.23-.99.61-1.39.43-1.9.82-3.8,1.26-5.7.29-1.26.74-2.57.81-3.87.05-1.03-.1-1.61.28-2.58.33-.84,1.38-.89,1.85-.15,2.31,3.64,3.26,8.06,2.61,12.3.45.04.89.11,1.32.2.27-.22.56-.4.88-.54-.86-.12.13-1.45.39-2.49.36-1.44.55-2.87.68-4.35.37-4.28.32-8.59.87-12.86.56-4.27,2.3-9.13,1.15-13.43-.73-2.75-2.42-5.93-5.73-3.46Z"/>
      <path class="cls-2" d="m321.63,95.05c-2.28.39-4.3.44-6.55-.09-2.72-.65-5.08-2.99-7.61-3.53-3.97-.85-6.31,3.9-6.74,6.99-.84,6.08-.3,12.57.12,18.64.39,5.66.19,11.65-1.6,17.07-.91,2.75-2.39,5.25-2.46,8.18-.02.85.19,2.72.66,4.51.31-.24.66-.43,1.04-.57.24-.09,1.38-.31,1.7-.3.44-.3.85-.69,1.42-.84,1.75-.47,3.91.65,5.54.12,4.33-1.42,5.57-11.16,6.99-14.91.1-.26.46-.24.53.03,1.09,4.02,1.59,8.5,1.35,12.67-.09,1.49-.57,3.34-1.38,5.01,1.27-.23,2.55-.34,3.84-.19.74.09,1.5.28,2.26.54.54-2.6-.25-6-.46-8.24-.25-2.72.03-5.32.52-8,1.23-6.71,3.58-12.89,5.85-19.29,1.29-3.62,7.43-14.62,3.08-17.87-1.87-1.4-6.05-.26-8.09.09Zm1.92,8.75c-.41,2.21-1.39,5.03-3.89,5.96-.61.23-1.33-.37-.91-1.01.97-1.47.31-3.55.16-5.18-.14-1.53.79-3.02,2.47-2.93,1.7.08,2.45,1.65,2.17,3.16Z"/>
      <path class="cls-3" d="m208.15,175.33c-1.99.95-4.71,1.76-7.24,2,.11.38.22.76.29,1.14.36.18.72.45,1.05.83,2.44,2.76,8.69.08,11.26-1.42,3.97-2.3,7.4-5.48,11.63-7.37,3.3-1.47,6.74-2.82,10.17-3.96,1.21-.4,8.05-2.3,5.73-5.04-.7-.83-4.42-.65-5.39-.79-4.17-.6-8.14-1.72-12.16-2.9-3.95-1.16-8.3-2.98-12.31-3.68-4.1-.72-7.69.05-11.56,1.17-4.14,1.2-5.43,2.92-6.7,5.95.4,1.47.53,3.01.76,4.7.31,2.31,1.36,3.7,2.57,4.94.28-.13.58-.24.94-.31,3.09-.57,6.24-.76,9.33-1.31,1.54-.27,3.09-.49,4.62-.76,1.34-.24,2.83-.1,4.13-.38.73-.16,1.26.8.68,1.31-2.58,2.22-4.65,4.39-7.8,5.88Z"/>
      <path class="cls-2" d="m300.46,245.97c1.94-1.91,3.97-3.71,6.18-5.08-1.08-1.51-3.92-3.66-5.14-4.48-3.3-2.23-8.08-3.85-12-4.4-7.75-1.07-15.49-.64-23.27-.8-6.87-.15-14.4-2.17-20.79-4.67-3.98-1.56-7.33-5.04-9.87-8.68-.04.08-.08.17-.12.25-1.65,3.32-3.99,6.79-5.27,10.25-.55,1.49-.79,2.95-.83,4.4,2.2-.03,3.35,1.06,5.52,1.82,2.7.95,5.75,1.13,8.54,1.73,6.67,1.42,13.56,3.79,20.04,5.95,6.74,2.26,13.73,5.26,20.88,5.59,5.23.24,10.41-.59,15.58-1.27.2-.2.38-.41.58-.61Z"/>
      <path class="cls-2" d="m316.22,185.78c.31-3.59,1.14-7.14,2.39-10.52,1.41-3.79,4.17-7.55,4.39-11.62.24-4.58-1.47-9.07-6.8-8.77-3.65.2-7.29,2.35-10.92,2.02-3.33-.31-7.37-4.51-10.63-2.1-2.76,2.04-2.01,8.22-1.83,10.99.53,8.07,1.44,16.91-.01,24.91-.67,3.68-1.74,7.75-4.28,10.61-2.05,2.31-5.11,3.3-7.22,5.52-2.71,2.87-4.7,8.59-2.93,12.41,1.05,2.28,3.22,3.59,5.29,4.97,5.13.38,10.22,1.18,15.02,3,.32-.6.85-1.11,1.64-1.42,2.3-.9,4.39-5.35,5.62-7.36,2.21-3.61,2.98-7.49,4.44-11.38.44-1.18,2.16-1.13,2.47.12,1.24,5.06.9,11.32-1.55,15.98-1.4,2.67-2.88,5.92-5.25,7.96,1.33.95,2.68,2.05,3.88,3.26.35-.51.87-.93,1.57-1.17,1.02-.36,2.47-2.66,3.19-3.45,1.81-2,3.06-4.02,4.02-6.55,1.55-4.08,2.58-9.74,1.92-14.06-1.2-7.97-5.12-15.08-4.4-23.36Zm-2.5-12.14c-.58,1.63-1.73,2.5-2.67,3.86-.45.66-1.49.16-1.25-.6.38-1.21.3-2.91.3-4.2,0-1.47-.29-2.95-.4-4.42-.23-3.2,5.47-2.98,5,.24-.24,1.68-.4,3.51-.97,5.11Z"/>
      <path class="cls-2" d="m251.8,251.16c-6.14-2.06-12.59-3.49-18.83-5.25-.72-.2-1.43-.38-2.15-.55,0,.1.02.21.03.31,1.21,5.29,2.55,10.57,3.91,15.83.5.17,1.01.35,1.56.49,2.78.7,5.71,1.03,8.54,1.49,4.48.73,8.58,2.16,12.91,3.45,7.88,2.34,16.09,5.18,24.24,5.44.75-2.41,1.94-4.71,3.34-6.81-5.1-3.02-10.34-5-15.89-7.3-5.83-2.43-11.66-5.08-17.66-7.09Z"/>
      <path class="cls-2" d="m60.49,105.03c-1.27-1.06-2.26-2.56-2.87-4.61-.01-.04-.02-.08-.03-.12-1.18,2.92-1.44,6.48-4.14,8.63-1.89,1.51-3.99,1.92-6.32,1.97-2.27.05-4.39-.74-5.31,2.18-.8,2.52.8,4.57,2.54,6.09,2.18,1.9,4.25,3.86,6.23,5.91.92.25,1.84.48,2.76.73.74.2,1.52.37,2.24.63.04.02.24.05.39.08.02-.01.07-.02.11-.03-.24-2.29-.54-4.57-.66-6.87-.25-4.87.97-11.3,5.06-14.6Z"/>
      <path class="cls-2" d="m66.66,170.82c.77,1.91,2.45,2.68,3.98,3.85,2.42,1.86,5.03,4.93,5.78,7.95.14-.21.32-.49.59-.86,1.96-2.72,2.48-6.2,4.58-8.85,1.14-1.45,2.67-2.72,4.38-3.65-4.85-12.29-4.32-28.94,1.36-40.64,1.56-3.23,4.47-5.57,5.94-8.79,1.38-3.04,2.01-11.23-2.25-11.93-3.97-.65-6.7,3.27-10.16,4.42-2.6.86-5.17.47-7.79-.19-1.79-.45-3.94-2-5.72-2.14-2.64-.22-4.2,1.9-4.96,4.07-1.38,3.98-.25,8.8.14,12.85.74,7.74,1.6,15.6.04,23.28-1.6,7.87-6.11,14.62-6.21,22.9-.05,3.86.51,4.92,3.13,7.7,1.51,1.6,3.24,3.69,5.3,4.57.35.15.67.24.98.3.74-.78,1.67-1.43,2.82-1.9-.94-1.25-1.9-2.49-2.99-3.56-1.79-1.76-3.41-3.17-4.17-5.66-1.07-3.56.28-9.02,3.54-11.08.79-.5,1.69.28,1.69,1.08.01,2.19-.89,4.1,0,6.29Zm.07-44.79c-.71-1.92-.78-3.8-.71-5.83.12-3.83,6.29-3.49,5.91.29-.4,3.96-.25,7.81-1.58,11.59-.32.91-1.74.9-1.94-.09-.43-2.12-.93-3.93-1.68-5.96Z"/>
      <path class="cls-2" d="m32.67,91.78c1.09.99,2.08,2.2,3.31,3.02,1.36.91,3.08,1.45,4.53,2.23,1.59.86,3.09,2.17,4.76,2.85,1.44.58,3.02.61,4.46,1.25.31.14.58.31.83.49.93-2.08,1.21-4.83,2.51-6.47.68-.85,1.57-1.71,2.57-2.37-1.48-1.45-2.8-3.11-3.99-4.53-1.74-2.09-3.49-4.42-5.05-6.8-.53-.34-.94-.87-1.09-1.59-.02-.09-.05-.17-.08-.26-.37-.61-.73-1.22-1.06-1.84-.05-.09-.09-.18-.14-.27-2.18-2.38-6.44-3.65-8.98-4.81-3.67-1.67-7.69-2.13-11.34-3.81-4.23-1.95-8.37-4.2-12.93-5.34-.56-.17-1.12-.29-1.69-.39.07.34.12.75.14,1.27.73,1.7,1.62,3.38,2.5,5.01,1.97,3.67,4.61,6.83,6.95,10.25,2.33,3.41,3.3,6.71,4.27,10.67,1.19,4.87,3.14,7.83,6.7,11.24,3.31,3.18,5.55,5.07,9.21,4.32.01,0,.03-.02.04-.03-1.19-.99-2.28-2.16-3.24-3.41-1.75-2.26-5.98-7.18-4.95-10.33.26-.79,1.19-.88,1.75-.37Z"/>
      <path class="cls-2" d="m305.06,84.93c1.99-.31,4.1-.03,6.19,1.05,2.56,1.33,4.3,2.15,6.34,2.42.63-1.93,2.38-3.79,3.26-5.6,1.26-2.58,1.59-5.36,2.71-7.93.44-1.02,1.72-.91,2.07.1,1.61,4.59,1.51,8.84-.14,12.91.62-.03,1.25-.05,1.88-.04.02-.03.04-.06.06-.09,6.04-7.28,1.81-17.04,1.5-25.44-.15-4.07.44-8.18.54-12.25.04-1.73.6-5.67-.47-7.07-1.23-1.6-3.42-1.64-5.24-.85-.01.03-.02.07-.03.1-2.98,9.2-6.87,17.82-10.98,26.54-2.54,5.39-5.11,10.77-7.68,16.15Z"/>
      <path class="cls-2" d="m312.54,294.4c-2.35-2.88-4.68-3.71-8.25-4.32-4.33-.75-8.45-1.6-12.74-1.77-3.19.24-5.96.84-8.32,3.66-2.68,3.19-5.45,6.56-7.87,9.95-3.15,4.41-2.74,7.86-.62,12.61,2.6,5.82,4.04,11.47,2.22,17.81-1.14,3.97-2.71,7.12-2.4,11.4.3,4.11,1.86,6.08,4.91,8.72,5.45,4.71,14.46,7.3,21.6,6.48,3.64-.41,7.97-2.14,9.93-5.4,1.95-3.24,1.71-8.32,1.12-11.95-1.06-6.61-2.48-12.13.87-18.35,1.53-2.85,3.74-5.51,4.74-8.6,1.18-3.64.64-6.75-.47-10.31-1.12-3.6-2.32-6.96-4.74-9.92Zm-18.49-.08c1.42-.94,3.64-.76,5.18-.19,1.57.58,3.54,1.35,4.64,2.62,1.1,1.26,1.04,3.21-.21,4.35-1.34,1.21-3.09.88-4.35-.21-.99-.86-1.94-1.67-2.73-2.72-.76-1.01-1.96-1.35-2.82-2.25-.49-.52-.24-1.25.29-1.6Zm14.66,27.35c-1.92,3.58-2.87,7.86-2.79,11.92.07,3.32,1.17,6.82.57,10.11-1.03,5.71-5.26,11.52-11.55,11.22-3.16-.15-5.56-2.13-8.25-3.55-2.68-1.41-4.3-2.51-5.76-5.31-.91-1.74,1.22-3.81,2.89-2.62,2.22,1.59,3.91,2.04,6.56,2.5,3.05.53,4.43.71,6.17-1.98,2.06-3.19.38-7.1.4-10.81.02-4.69,1.14-9.94,3.52-14.01,1.06-1.82,2.29-3.07,3.87-4.41,2.74-2.33,3.46-4.55,3.56-8.1,0-.12.19-.21.27-.09,3.82,5.41,3.56,9.55.55,15.14Z"/>
      <path class="cls-2" d="m209.17,295.61c-4.46-1.22-10.26-1.46-14.28-3.84-3.91-2.31-5.56-6.94-9.22-9.47-3.68-2.54-8.68-4.12-13.1-3.16,1.34,1.46,2.77,2.83,3.98,4.39,4.45,5.71,6.11,20.04-4.23,21.15-3.49.37-7.72-3.4-10.99-.6-.74.64-1.31,1.7-1.88,2.73.01,1.41.17,2.9.33,3.38,1.23,3.81,4.36,5.17,7.58,6.95,3.17,1.76,6.72,2.34,10.18,3.36,2.61.77,5.55,1.88,8.28.96,1.36-.46,2.55-1.57,3.91-2.1,6.56-2.59,15.72-.51,22.47.59,3.39.56,6.76,1.45,9.98,2.67-.3-.22-.62-.42-.97-.59-2.25-1.11-4.86-2.04-7.28-2.72-4.65-1.3-9.24-2.9-13.93-4.1-3.44-.88-6.52-1.01-9.98-.22-2.52.57-4.99,1.67-7.59,1.86-3.67.27-6.39-1.35-7.72-4.76-.15-.38-.22-.86.06-1.22.06-.08.12-.15.18-.23.41-.51,1.35-.34,1.9-.39,1.55-.14,3.24.54,4.97.22,1.53-.29,2.98-.89,4.46-1.39,6-2.05,11.46-1.97,17.57-.36,5.91,1.55,12.02,2.36,17.71,4.51,2.04.77,4.14,1.27,5.92,2.46-.91-5.14-1.93-10.25-2.98-15.36-5.09-1.74-10.07-3.29-15.3-4.73Z"/>
      <path class="cls-2" d="m327.13,260.42c-.36-.14-.4-.77.04-.82,4.25-.51,8.24-.65,11.72,2.34,4.23,3.64,3.79,8.48.94,12.8-1.16,1.76-2.42,3.55-3.84,5.12-1.87,2.06-4.97,4.43-5.28,7.44-.24,2.33,1.39,4.73,1.62,7.11,0,.09,0,.17.02.26.77-1.48,1.43-2.95,2.04-4.08,1.04-1.92,2.12-3.22,3.67-4.71,2.27-2.16,3.95-4.61,5.89-7.06,1.63-2.05,3.13-3.97,4.22-6.39,1.65-3.68.59-6.46-1.63-9.63-1.57-2.25-3.44-4.61-5.62-6.28-2.61-1.99-5.58-2.64-8.53-3.89-4.86-2.06-9.21-5.4-14.33-6.87-6.64-1.91-12.21,4-15.94,8.94-3.4,4.51-6.3,9.26-9.81,13.71-1.83,2.33-3.15,4.99-3.61,7.94-.36,2.3.13,3.99,1.33,5.27,2.27-.39,4.84,0,7.07-.35,5.41-.82,9.73-3.1,15.35-2.29,1.95.28,3.62.78,5.08,1.57,2.08-.23,4.11-.62,6.02-1.3,2.35-3.31,5.6-5.74,8.03-8.99,2.77-3.7-.39-8.35-4.44-9.86Z"/>
      <path class="cls-5" d="m242.39,322.45c-2.22-14.69-5.6-29.14-8.53-43.71-1.58-7.85-3.59-15.53-5.15-23.42-1.18-5.96-3.58-12.89-3.86-19.27-.88-2.29-1.13-4.35-.7-7.18.61-4.02,3.16-7.6,4.87-11.24,1.98-4.22,4-8.43,6.1-12.59,3.81-7.57,8.57-14.62,12.38-22.19,3.81-7.56,7.74-14.92,11.97-22.24,4.4-7.61,7.7-15.65,12.67-22.95,5.48-8.04,8.5-17.16,12.64-25.89,7.26-15.32,14.7-30.54,21.99-45.84,3.76-7.89,7.49-15.65,10.61-23.84,2.85-7.48,6.86-16.51,6.99-24.68-1.02-1.64-2.86-2.36-5.08-3.06-.42-.13-.85-.24-1.29-.34-9.64-.35-19.43-1.08-29.02-1.97-10.9-1.01-21.74-2.95-32.71-2.96-9.42-.01-18.78,1.35-28.14,2.24-9.49.9-18.99,1.78-28.46,2.85-19.19,2.16-38.27,5.16-57.02,9.89-18.51,4.67-36.46,11.14-53.99,18.68-7.77,3.34-15.6,6.71-23.15,10.54-4.61,2.34-8.46,5.49-12.24,8.78-.16.3-.38.59-.69.85-3.32,2.83-5.51,4.6-3.79,9.01.98,2.5,2.38,4.5,3.89,6.71,1.89,2.77,3.71,5.53,5.64,8.21.53-.99,1.19-1.91,2.02-2.71,3.79-3.69,9.09-5.36,13.47-8.23-3.86-.26-7.74-.85-11.52-1.51-3.69-.64-5.25-1.33-7.84-3.91,0,0,0-.02,0-.03.19-.15.4-.25.62-.35,0-.12,0-.23.02-.33-.11-.41,0-.89.27-1.23.12-.52.38-1.01.82-1.43,0,0-.02-.02-.03-.02,1.72-1.81,4.65-2.46,6.85-3.53,2.79-1.35,5.23-3.19,8.02-4.51,6.38-3.03,12.86-6.28,19.44-8.86,6.91-2.7,13.82-5.25,20.89-7.6,3.55-1.18,7.13-1.94,10.77-2.74,3.21-.71,6.5-2.13,9.82-1.9.54.04.62.83.08.95-3.48.76-6.95,2.83-10.32,4.08-3.61,1.34-7.06,2.85-10.53,4.51-6.4,3.06-12.97,5.5-19.44,8.4-5.99,2.68-11.98,5.76-17.82,8.72-2.24,1.14-4.3,2.55-6.49,3.78.59-.03,1.18-.07,1.77-.1,3.95-.2,7.94-.18,11.9-.47,2.14-3.55,4.08-7.3,7.28-9.77,4.64-3.58,9.17-1.01,12.19,3.16.98,1.35,1.66,2.74,2.12,4.17,3.31-.37,6.63-.74,9.94-1.14,18.2-2.18,36.26-4.3,54.29-7.72,8.13-1.54,16.15-3.64,24.31-5,8.5-1.41,17.09-3.1,25.44-5.22,17.3-4.39,34.29-9.95,51.55-14.42,8.42-2.18,16.93-4.1,25.14-6.99,3.43-1.21,7.08-1.55,10.58-2.51,2.05-.56,4.03-1.4,6.06-1.98-1.91-.72-4.37-.78-6.1-1.02-2.98-.42-5.86-.4-8.81-.66-.39-.04-.47-.65-.06-.72,1.73-.3,3.06-.96,4.83-1.07,2.06-.12,4.15-.09,6.21-.13,2.39-.04,5.43.05,7.36,1.73.6.52.84,1.11.65,1.92-.18.77-.62,1.09-.96,1.78-.2.39-.53.57-.89.59-.18.18-.4.33-.69.42-3.39,1.06-6.38,3.55-9.78,4.75-3.81,1.35-7.45,2.99-11.27,4.32-9.26,3.21-18.94,5.04-28.29,7.97-33.65,10.53-68.13,17.83-102.8,23.86-17.68,3.07-35.57,5.15-53.44,6.64-.83.07-1.65.15-2.48.24,0,1.89-.19,3.83-.46,5.79,3.66-.47,7.92.25,11.29-.13,7.19-.81,14.27-2.08,21.5-2.73,7.14-.64,14.48-1.13,21.54-2.33,5.74-.98,12.17-1.19,17.76-2.68.89-.24,1.64,1.08.86,1.65-3.65,2.64-10.18,2.92-14.45,4.4-6.96,2.4-14.1,3.26-21.37,4.28-7.65,1.07-15.2,1.97-22.8,3.34-3.03.55-6.11.76-9.19.79-1.41.01-4.56-.39-5.48.05-.12.06-.24.09-.36.13-.25,4.95-.1,9.99-1.15,14.76-.19.84-.42,1.9-.73,3,6.56-.4,13.58.2,19.73,1.92,4.63,1.3,9.82,2.13,14.27,3.87,3.23,1.26,6.08,3.59,9.29,4.77,2.58-2.61,5.93-4.11,9.57-4.1-.49-5.04,2.8-9,7.26-11.67,6.36-3.81,13.98-2.65,20.86-4.82,7.45-2.34,12.16-8.02,18.6-11.89,10.22-6.14,7.64,17.15,6.6,20.75-.97,3.33-2.55,6.84-4.38,10.19,6.09-2.85,12.76-4.92,19-7.42,6.09-2.44,13.03-3.83,19.56-4.33,2.93-.23,5.99-.57,8.95-.42,1.39-.04,2.77-.08,4.14-.13,4.2-.16,8.41.22,12.45,1.41,3.43,1.01,7.45,1.55,10.07,4.2.97.98,1.41,1.97,1.63,3.02.51.92.85,1.98.99,3.16.81,7.08-4.37,12.71-7.09,18.79-5.18,11.56-11.66,22.95-18.47,33.61-.19.3-.4.58-.6.87-.5,2.48-2.46,5.38-3.26,7.24-1.55,3.61-3.13,7.18-5.06,10.6-2.25,3.98-4.95,7.74-7.27,11.7-2.23,3.81-3.66,7.83-5.62,11.74-1.86,3.71-4.52,7.05-6.9,10.43-1.68,2.37-3.21,4.64-6.25,5.36-3.71.89-6.74-1.01-9.27-3.7-3.55-2.52-7.12-5.02-10.44-7.82-3.93-3.31-7.51-6.94-11.23-10.46-1.68.75-3.39,1.35-5.15,1.83,3.33,2.44,6.64,4.89,9.86,7.42,5.68,4.45,10.02,9.41,14.71,14.84,1.68,1.95,3.41,3.9,4.79,6.07,1.16,1.47,2.18,3.02,2.55,4.78.13.18.23.39.28.65.03.18.06.32.08.46,2.58,15.72,7.44,31.2,10.92,46.68,3.25,14.45,6.86,28.81,9.06,43.46,2.24,14.9,5.77,29.62,7.67,44.56,1.02,8,2.8,15.72,4.2,23.64.98,5.58,2.32,11.4,2.87,17.14.35.97.56,1.99.48,3.25-.19,3.28-3.59,6.01-2.89,9.29.97,4.55,7.08,5.32,10.86,4.82,3.93-.52,8.56-2.19,8.7-7,.11-3.64-3.01-3.45-5.14-5.38-.23-.21-.44-.43-.64-.67-.75-.13-1.4-.61-1.5-1.5-.06-.53-.14-1.06-.23-1.58-.46-1.26-.73-2.61-.89-3.97-.45-1.74-.93-3.47-1.3-5.26-.85-4.14-1.56-8.31-2.45-12.44-1.61-7.5-3.14-14.83-4.23-22.46-1.04-7.3-2.61-14.58-3.86-21.84-1.29-7.51-2.79-14.95-3.93-22.5Zm18.13-303.14c-9.65,4.15-21.35,3.56-31.63,4.59-10.71,1.07-21.48,3.26-32.26,3.64-.73.03-.72-1.02-.1-1.2,9.98-3.02,20.22-6.49,30.63-7.68,10.68-1.21,21.41-1.48,32.08-2.87,1.99-.26,3.38,2.62,1.29,3.52Zm19.39,90.02c-.21-.01-.19-.33.02-.32.21.01.19.33-.02.32Zm-7.43-55.59c-4.98.76-10.61,1.91-15.65,1.31-.46-.05-.57-.75-.07-.84,5.33-1,10.77-4.31,15.92-6.2,4.83-1.77,10.01-3.04,14.57-5.43,4.32-2.27,8.38-4.6,12.84-6.59,4.07-1.81,8.03-4.4,12.47-5.19,1.8-.32,3.06,1.9,1.66,3.19-2.06,1.91-3.81,3.67-5.7,5.23-1.84,2.8-4.47,4.99-6.2,7.89-1.82,3.05-2.44,6.22-3.61,9.5-2.31,6.51-6.29,11.79-10.79,16.88-1.05,1.18-2.82-.26-2.42-1.57,1.15-3.83,1.19-7.67,2.31-11.5.15-1.37.28-2.75.41-4.12.07-.75-.33-2.57,0-2.23-.44-.63-.93-.95-1.66-1.47-.69-.49-1.33-.76-1.86-1.45-.02-.03-.04-.06-.06-.08-3.97,1.2-8.1,2.07-12.15,2.69Zm-20,362.13c.78-.84,2.26-.85,3.17-.25.19.13.35.28.5.44,0,0,0,0,.01,0,.01.02.02.03.03.05.25.3.43.65.52,1.02.14.4.2.82.22,1.28.05,0,.1,0,.12,0,.74.06,1.5.23,2.22.42,2.51.65,2.19,4.51-.24,4.99-2.27.45-4.88.74-6.62-1.21-1.55-1.74-1.48-5.07.08-6.74Z"/>
      <path class="cls-5" d="m271.58,419.6c-.46,7.7-6.31,11.51-13.37,12.55-7.01,1.03-15.62-1.39-17.27-9.26-.8-3.8,1.18-6.12,2.76-9.32.03-.05.04-.11.07-.16-2.32,1.06-5,1.69-6.99,2.34-3.59,1.17-7.23,2.22-10.85,3.3-3.29,1.85-6.83,3.44-10.01,5.16-5.57,3.01-10.88,6.39-15.8,10.42-1.1.9-2.22,1.87-2.96,3.1-1.37,2.25-1.07,2.27,1.09,2.6,3.29.51,6.55.23,9.85,0,4.99-.34,11.13-1.08,14.7,3.2,2.14,2.57,2.05,5.05,5.9,5.68,3.27.54,6.64.53,9.94.71,2.12.11,4.24.24,6.36.37,8.39-.3,16.51-1.56,24.77-3.25,8.78-1.8,17.73-3.85,26.22-6.75,7.3-2.49,15.14-5.14,22.09-8.5,1.02-.49,1.67.91.79,1.52-3.19,2.22-6.99,3.59-10.4,5.47-3.6,1.99-7.25,3.93-10.92,5.79-1.71.86-3.43,1.66-5.17,2.41,1.36-.04,2.7-.16,3.82-.6.27-.11.52-.07.73.03,6.81-2.37,13.26-5.49,19.79-8.52,7.32-3.4,14.68-7.33,20.77-12.62.48-.41,1.16.18.83.71-3.83,6.21-9.61,9.65-15.61,13.51-6.2,3.99-13.25,7.22-20.12,9.91-5.53,2.17-11.06,3.23-16.77,4.64-6.7,1.65-13.27,3.73-19.98,5.41-12.69,3.18-24.98,5.18-38.07,5.71-8.25.33-16.83,1.2-25.24.93,1.63.6,3.37,1.21,5.14,1.73,6.21.58,12.45.88,18.8.85,11.97-.06,24.82-.96,36.54-3.48,6.64-1.43,13.23-1.96,19.74-4.13,5.59-1.87,11.08-4.05,16.79-5.53,5.95-1.54,11.65-4.25,17.34-6.6,6.02-2.49,10.35-5.23,14.79-9.92,3.61-3.82,10.43-7.99,11.78-13.15,1.79-6.86-4.77-12.41-10.43-15.02-5.83-2.68-12.75-2.72-19.06-3.11-6.1-.38-12.08-.58-18.19-.46-10.01.2-20.38,1.31-30.3,3.06.66.66,1.4,1.3,2.25,1.95,2.4,1.84,4.03,4.16,3.84,7.34Z"/>
      <path class="cls-2" d="m264.85,281.6c-5.79-1.65-11.37-3.17-17.27-4.34-3.13-.62-6.24-1.28-9.35-1.95.32,1.34.64,2.67.94,4.01.87,3.84,1.76,7.68,2.64,11.52,6.91,1.89,14.02,2.2,21.2,2.43,4.67.15,8.57-.17,10.62-4.72.75-1.65,1.76-2.91,2.97-4.1-3.78-1.63-9.42-2.19-11.75-2.85Z"/>
      <path class="cls-2" d="m355.91,276.85c-.67-.19-1.34-.25-2.01-.29-.48.93-1.02,1.84-1.59,2.74,4.42,2.02,6.98,8.53,3.95,12.44-.32.41-.89.39-1.16-.06-.47-.77-.8-2.43-1.33-3.08-.06-.07-3.01-1.82-2.97-1.83-1.41.27-3.4,6.29-3.97,7.53-2.29,4.99-5,9.8-8.65,13.89-7.86,8.79-7.9,19.76-8.36,30.73.64-.12,1.3-.29,1.9-.35,1.8-3.76,5.6-14.83,10.39-13.06,1.19.44,1.65,2.06.62,2.94-.78.67-1.37,5.98-1.65,6.95-.83,2.92-1.8,5.87-3.15,8.58-2.76,5.57-5.59,7.37-10.81,8.6-.5,1.39-.78,2.86-1.32,4.24,1.49.24,3.03.28,4.65.06,2.87-.39,5.62-1.23,7.39-3.68,1.28-1.77,2.36-3.76,3.38-5.69,4.49-8.52,7.92-16.75,10.54-26.02,2.49-8.82,6.66-17.07,10.31-25.44,1.86-4.26,2.5-10.23.03-14.41-1.25-2.12-3.79-4.1-6.19-4.79Z"/>
      <path class="cls-1" d="m183.55,209.4c.07.03.12.05.17.06,0,0,0,0,0,0-.06-.02-.12-.03-.17-.06Z"/>
      <path class="cls-2" d="m266.11,308.18c-6.48-2.47-14.81-2.03-21.45-4.55,1.36,6.35,2.6,12.72,3.57,19.14.19,1.25.39,2.49.6,3.74,3.2.21,6.5.7,9.65,1.04,2.13.23,4.18.88,6.3,1.18,2.26-2.02,3.98-6.55,4.34-10.68-.17-.42-.35-.84-.54-1.27-1.16-2.62-2.29-5.64-2.47-8.62Z"/>
      <path class="cls-2" d="m196.36,219.12c-3.22-3.72-7.24-6.86-11.4-9.82-.37.2-.8.28-1.22.16,0,0-.01,0-.02,0-.1.02-.24.08-.42.25-.26.24-.55.46-.82.69-.82.72-1.68,1.47-2.42,2.28-.87.96-1.49,2.13-2.19,3.21-.03.05-.08.11-.12.16.66.05,1.32.11,1.95.21,5.51.88,9.75,3.38,12,8.56,1.77,1.23,3.58,2.38,5.69,3.02,2.48.75,5.01,1.06,7.53,1.57-.54-.61-1.07-1.23-1.59-1.88-2.27-2.83-4.58-5.66-6.96-8.42Z"/>
      <path class="cls-2" d="m167.06,298.1c3.97.87,7.99.4,7.55-4.74-.46-5.42-4.54-8.2-7.74-12.06-2.55-3.08-4.33-7.1-5.91-10.76-2.19-5.09-3-10.69-5.12-15.85-1.61-3.9-2.57-7.56-2.97-11.77-.55-5.73.86-10.4,1.45-15.97.48-4.54-2.1-7.94-3.81-11.9-.5-1.17-1.1-2.32-1.86-3.24-2.95-2.06-7.04-2.11-8.61,1.57-.84,1.98-1.23,4.23-2.41,6.06-.28.44-.59.79-.9,1.1-.62.86-1.37,1.59-2.34,2.06-1.57.76-3.69.76-5.37.56-2.79-.34-4.08-1.74-6.96-.83-7.16,2.26-1.42,11.03,1.75,14.62,5.51,6.22,9.45,13.79,13.54,20.99,1.79,3.16,3.42,6.84,4.58,10.27.68,2.03.93,4.08.97,6.15.29,1.54.51,3.09.59,4.63.33,5.86-.38,11.48,1.14,17.26.59,2.25,1.42,4.99,2.53,7.08,2.12,4.01,5.22,3.57,7.72.33,2.17-2.81,3.49-5.45,7.34-5.96,1.63-.21,3.24.03,4.84.38Zm-33.19-58.67c-.61-.54-1-.99-1.76-1.3-.73-.3-1.46-.62-2.15-1.01-1.43-.8-2.58-2.05-3.54-3.36-1.07-1.46-1.06-3.38.53-4.49,1.36-.95,3.68-.62,4.39,1.06.56,1.34,1.3,2.65,2.22,3.79.45.56.97,1.04,1.4,1.61.51.69.72,1.44,1.05,2.2.62,1.42-1.04,2.46-2.14,1.49Zm17.38,57.06c-4.28-3.48-4.29-10.08-4.26-15.11.05-7.33-.38-14.35-2.71-21.36-.23-.7.8-.96,1.14-.41,3.24,5.31,6.3,9.9,7.75,16.06.71,3.02,1.16,5.84,1.28,8.95.07,1.78-.55,5.69.89,7.08,2.58,2.49-1.3,7.05-4.08,4.79Z"/>
      <path class="cls-2" d="m130.64,266.16c-2.32-.91-4.73-1.25-6.89-2.59-.12-.08-.1-.25.02-.32,2.81-1.79,5.93-3.06,9.08-2.02-1.46-2.54-3.16-4.95-4.7-7.44-1.59-2.57-2.64-5.34-4.45-7.77-1.58-2.12-3.66-4.3-5.53-6.6.29,3.13.41,6.27.26,9.32-.17,3.72-.34,7.45-.51,11.17-.15,3.21-.89,7.15,2.09,9.41,3.43,2.6,9.28-.05,13.85.06-.66-1.4-1.54-2.57-3.22-3.22Z"/>
      <path class="cls-1" d="m183.73,209.45s.01,0,.02,0c.15.03.13-.04-.02,0Z"/>
      <g>
        <path class="cls-4" d="m44.35,119.18c2.18,1.9,4.25,3.86,6.23,5.91.92.25,1.84.48,2.76.73.74.2,1.52.37,2.24.63.04.02.24.05.39.08.02-.01.07-.02.11-.03-.24-2.29-.54-4.57-.66-6.87-.25-4.87.97-11.3,5.06-14.6-1.27-1.06-2.26-2.56-2.87-4.61-.01-.04-.02-.08-.03-.12-1.18,2.92-1.44,6.48-4.14,8.63-1.89,1.51-3.99,1.92-6.32,1.97-2.27.05-4.39-.74-5.31,2.18-.8,2.52.8,4.57,2.54,6.09Z"/>
        <path class="cls-4" d="m32.67,91.78c1.09.99,2.08,2.2,3.31,3.02,1.36.91,3.08,1.45,4.53,2.23,1.59.86,3.09,2.17,4.76,2.85,1.44.58,3.02.61,4.46,1.25.31.14.58.31.83.49.93-2.08,1.21-4.83,2.51-6.47.68-.85,1.57-1.71,2.57-2.37-1.48-1.45-2.8-3.11-3.99-4.53-1.74-2.09-3.49-4.42-5.05-6.8-.53-.34-.94-.87-1.09-1.59-.02-.09-.05-.17-.08-.26-.37-.61-.73-1.22-1.06-1.84-.05-.09-.09-.18-.14-.27-2.18-2.38-6.44-3.65-8.98-4.81-3.67-1.67-7.69-2.13-11.34-3.81-4.23-1.95-8.37-4.2-12.93-5.34-.56-.17-1.12-.29-1.69-.39.07.34.12.75.14,1.27.73,1.7,1.62,3.38,2.5,5.01,1.97,3.67,4.61,6.83,6.95,10.25,2.33,3.41,3.3,6.71,4.27,10.67,1.19,4.87,3.14,7.83,6.7,11.24,3.31,3.18,5.55,5.07,9.21,4.32.01,0,.03-.02.04-.03-1.19-.99-2.28-2.16-3.24-3.41-1.75-2.26-5.98-7.18-4.95-10.33.26-.79,1.19-.88,1.75-.37Z"/>
        <path class="cls-4" d="m66.66,170.82c.77,1.91,2.45,2.68,3.98,3.85,2.42,1.86,5.03,4.93,5.78,7.95.14-.21.32-.49.59-.86,1.96-2.72,2.48-6.2,4.58-8.85,1.14-1.45,2.67-2.72,4.38-3.65-4.85-12.29-4.32-28.94,1.36-40.64,1.56-3.23,4.47-5.57,5.94-8.79,1.38-3.04,2.01-11.23-2.25-11.93-3.97-.65-6.7,3.27-10.16,4.42-2.6.86-5.17.47-7.79-.19-1.79-.45-3.94-2-5.72-2.14-2.64-.22-4.2,1.9-4.96,4.07-1.38,3.98-.25,8.8.14,12.85.74,7.74,1.6,15.6.04,23.28-1.6,7.87-6.11,14.62-6.21,22.9-.05,3.86.51,4.92,3.13,7.7,1.51,1.6,3.24,3.69,5.3,4.57.35.15.67.24.98.3.74-.78,1.67-1.43,2.82-1.9-.94-1.25-1.9-2.49-2.99-3.56-1.79-1.76-3.41-3.17-4.17-5.66-1.07-3.56.28-9.02,3.54-11.08.79-.5,1.69.28,1.69,1.08.01,2.19-.89,4.1,0,6.29Zm.07-44.79c-.71-1.92-.78-3.8-.71-5.83.12-3.83,6.29-3.49,5.91.29-.4,3.96-.25,7.81-1.58,11.59-.32.91-1.74.9-1.94-.09-.43-2.12-.93-3.93-1.68-5.96Z"/>
        <path class="cls-4" d="m100.73,158.05c-6.67,2.02-3.41,8.28-.89,13.04.23.24.46.5.69.76.1-3.7,1.6-6.08,3.42-9.29,0-.02.02-.04.03-.05.04-1.27.07-2.55.01-3.83-.02-.42-.05-.84-.08-1.26-1.05.16-2.1.31-3.18.63Z"/>
        <path class="cls-4" d="m201.03,85.04c-1.74,1.11-3.52,2.58-5.18,3.82-7.36,5.46-14.15,9.77-23.42,11.11-4.37.63-12.04,1.78-12.7,7.45-.09.79.05,1.51.28,2.2,2.7,1.78,4.62,4.58,7.78,5.47,1.92.54,3.95.37,5.91.48.38-.4.89-.71,1.54-.87.73-.18,1.35-.66,2.05-.95.74-.31,1.51-.5,2.24-.81,1.68-.72,3.39-1.91,4.5-3.37.53-.7,1.63-.38,1.62.53,0,2.32-1.68,5.13-2.98,6.98-.52.74-1.24,1.52-2.07,2.19.29.43.55.88.77,1.36,8.89-1.8,13.97-12.9,17.96-20.17,2.38-4.35,3.17-9.34,3.07-14.27-.04-2.11.44-2.29-1.37-1.14Z"/>
        <path class="cls-4" d="m105.76,230.28c-.06-.37-.11-.75-.15-1.14-.4-4.25-2.02-6.19-4.89-9.09-5.18-5.23-8.97-10.89-13.37-16.71-.35-.46.13-.98.63-.74,6.07,2.99,12.21,7.06,17.27,11.77-.52-1.16-1.05-2.32-1.56-3.48-2.9-6.59-7.8-11.38-7.38-18.99.17-3.1,1.75-6.42,4.06-9.02-.69-.77-1.33-1.57-2-2.39-1.23-1.5-2.78-4.29-4.55-5.17-6.89-3.42-9.03,8.11-11.8,11.93-1.08,1.48-2.45,2.59-4.24,3.01-1.88.44-4.45-.71-6.04.15-.2.18-.4.35-.61.51-.24.28-.45.65-.59,1.14-.6,2.01.66,5.91,1.59,7.65,1.57,2.93,4.26,5.34,6.89,7.29,9.35,6.94,19.35,14.28,26.76,23.28Z"/>
        <path class="cls-4" d="m125.5,183.85c-2.28,1.4-4.44,2.5-7.17,2.75-3.17.29-5.58-1.67-8.55-1.67-3.2,0-6.4,4.41-6.89,7.3-.52,3.15.75,5.79,2.19,8.46.27.51.52,1,.75,1.5.96-3.51,2.8-6.69,5.61-8.82,6.8-5.15,15.17-1.52,22-5.68.42-.26.84-.54,1.26-.81-1.04-4.72-5.74-5.15-9.2-3.02Z"/>
        <path class="cls-4" d="m97.74,124.9c-.93,1.38-1.97,2.66-2.93,4,1.78,1.98,3.64,3.83,5.64,5.44,5.86,4.69,11.99,9.17,17.39,14.4.1.1.21.2.32.3.89-.76,1.76-1.55,2.63-2.27.37-.31.75-.62,1.13-.92-4.08-3.23-8.22-6.43-12.22-9.84-3.99-3.41-8.56-6.92-11.96-11.1Z"/>
        <path class="cls-4" d="m142.04,130.93c-3.66,7.33-7.99,13.07-14.22,18.39-2.97,2.53-5.92,5.25-9.12,7.49-2.87,2.01-5.23,3.02-6.98,6.28-1.38,2.55-3.29,5.53-3.86,8.35-.41,2.05.02,4.75,1.28,6.81,2.25-.04,3.96.85,6.34,1.39,4.68,1.05,7.15-3.12,11.55-3.69,1.36-.17,2.74-.15,4.08.06,1.36-3.56,3.62-6.49,5.74-9.77,1.86-2.88,2.69-6.91,4.99-9.35.97-1.03,2.32.23,2.08,1.35-.78,3.53-.51,7.18-1.52,10.67-1.07,3.69-2.64,7.14-4.02,10.69.87.9,1.58,1.96,2.09,3.17,1.32-1.04,2.61-2.11,3.87-3.23.99-2.45,1.16-5.99,1.62-7.72,1.1-4.15,2.51-8.18,4.2-12.13,2.55-5.93,4.33-14.44,9.19-18.88,4.84-4.43,16.34-6.92,16.11-15.2-.14-4.86-6.42-2.91-9.83-3.9-3.51-1.02-5.38-3.51-8.19-5.56-9.69-7.08-12.51,9.04-15.39,14.82Zm17.18-1.84c.93-.78,1.88-1.12,2.95-1.64,4.04-1.99,6.4,4.57,2.1,5.74-1.7.46-3.42.94-5.18,1.25-1.2.22-1.93.66-3.02,1.2-.52.26-1.06.27-1.54.57-.67.41-1.19-.45-.91-1.01.33-.67.85-1.19,1.27-1.79.61-.87,1.34-1.65,2.1-2.38.71-.67,1.49-1.31,2.23-1.94Z"/>
        <path class="cls-4" d="m208.15,175.33c-1.99.95-4.71,1.76-7.24,2,.11.38.22.76.29,1.14.36.18.72.45,1.05.83,2.44,2.76,8.69.08,11.26-1.42,3.97-2.3,7.4-5.48,11.63-7.37,3.3-1.47,6.74-2.82,10.17-3.96,1.21-.4,8.05-2.3,5.73-5.04-.7-.83-4.42-.65-5.39-.79-4.17-.6-8.14-1.72-12.16-2.9-3.95-1.16-8.3-2.98-12.31-3.68-4.1-.72-7.69.05-11.56,1.17-4.14,1.2-5.43,2.92-6.7,5.95.4,1.47.53,3.01.76,4.7.31,2.31,1.36,3.7,2.57,4.94.28-.13.58-.24.94-.31,3.09-.57,6.24-.76,9.33-1.31,1.54-.27,3.09-.49,4.62-.76,1.34-.24,2.83-.1,4.13-.38.73-.16,1.26.8.68,1.31-2.58,2.22-4.65,4.39-7.8,5.88Z"/>
        <path class="cls-4" d="m362.07,296.04c1.86-4.26,2.5-10.23.03-14.41-1.25-2.12-3.79-4.1-6.19-4.79-.67-.19-1.34-.25-2.01-.29-.48.93-1.02,1.84-1.59,2.74,4.42,2.02,6.98,8.53,3.95,12.44-.32.41-.89.39-1.16-.06-.47-.77-.8-2.43-1.33-3.08-.06-.07-3.01-1.82-2.97-1.83-1.41.27-3.4,6.29-3.97,7.53-2.29,4.99-5,9.8-8.65,13.89-7.86,8.79-7.9,19.76-8.36,30.73.64-.12,1.3-.29,1.9-.35,1.8-3.76,5.6-14.83,10.39-13.06,1.19.44,1.65,2.06.62,2.94-.78.67-1.37,5.98-1.65,6.95-.83,2.92-1.8,5.87-3.15,8.58-2.76,5.57-5.59,7.37-10.81,8.6-.5,1.39-.78,2.86-1.32,4.24,1.49.24,3.03.28,4.65.06,2.87-.39,5.62-1.23,7.39-3.68,1.28-1.77,2.36-3.76,3.38-5.69,4.49-8.52,7.92-16.75,10.54-26.02,2.49-8.82,6.66-17.07,10.31-25.44Z"/>
        <path class="cls-4" d="m276.6,284.45c-3.78-1.63-9.42-2.19-11.75-2.85-5.79-1.65-11.37-3.17-17.27-4.34-3.13-.62-6.24-1.28-9.35-1.95.32,1.34.64,2.67.94,4.01.87,3.84,1.76,7.68,2.64,11.52,6.91,1.89,14.02,2.2,21.2,2.43,4.67.15,8.57-.17,10.62-4.72.75-1.65,1.76-2.91,2.97-4.1Z"/>
        <path class="cls-4" d="m317.75,314.63c1.18-3.64.64-6.75-.47-10.31-1.12-3.6-2.32-6.96-4.74-9.92-2.35-2.88-4.68-3.71-8.25-4.32-4.33-.75-8.45-1.6-12.74-1.77-3.19.24-5.96.84-8.32,3.66-2.68,3.19-5.45,6.56-7.87,9.95-3.15,4.41-2.74,7.86-.62,12.61,2.6,5.82,4.04,11.47,2.22,17.81-1.14,3.97-2.71,7.12-2.4,11.4.3,4.11,1.86,6.08,4.91,8.72,5.45,4.71,14.46,7.3,21.6,6.48,3.64-.41,7.97-2.14,9.93-5.4,1.95-3.24,1.71-8.32,1.12-11.95-1.06-6.61-2.48-12.13.87-18.35,1.53-2.85,3.74-5.51,4.74-8.6Zm-23.7-20.31c1.42-.94,3.64-.76,5.18-.19,1.57.58,3.54,1.35,4.64,2.62,1.1,1.26,1.04,3.21-.21,4.35-1.34,1.21-3.09.88-4.35-.21-.99-.86-1.94-1.67-2.73-2.72-.76-1.01-1.96-1.35-2.82-2.25-.49-.52-.24-1.25.29-1.6Zm14.66,27.35c-1.92,3.58-2.87,7.86-2.79,11.92.07,3.32,1.17,6.82.57,10.11-1.03,5.71-5.26,11.52-11.55,11.22-3.16-.15-5.56-2.13-8.25-3.55-2.68-1.41-4.3-2.51-5.76-5.31-.91-1.74,1.22-3.81,2.89-2.62,2.22,1.59,3.91,2.04,6.56,2.5,3.05.53,4.43.71,6.17-1.98,2.06-3.19.38-7.1.4-10.81.02-4.69,1.14-9.94,3.52-14.01,1.06-1.82,2.29-3.07,3.87-4.41,2.74-2.33,3.46-4.55,3.56-8.1,0-.12.19-.21.27-.09,3.82,5.41,3.56,9.55.55,15.14Z"/>
        <path class="cls-4" d="m128.22,214.87c1.15-4.23,3.97-8.95,8.06-10.63,3.25-1.33,5.95-1.76,8.64-4.12,2.66-2.34,4.94-5.03,7.38-7.58,3.57-3.72,9.73-7.59,14.85-8.55,2.52-.47,5.25-.29,7.79-.61,4.34-.54,6-1.49,7.71-5.15.18-.39.68-.37.82.04,1.43,4.1.42,8.27-3.66,10.66-2.43,1.42-5.47,1.64-8.19,1.93-3.1.33-5.28,1.42-7.87,3.1-4.92,3.18-8.28,7.96-12.45,11.92.5.29.98.6,1.44.97.4.32.76.65,1.1.98.75-1.01,1.57-2,2.35-3.11,1.96-2.79,4.25-4.44,7.1-6.33,6.06-4.01,13.56-2.48,20.26-5.06,5.75-2.21,17.14-10.69,9.29-17.14-1.89-1.55-4.12-2.78-5.06-5.16-1.07-2.71.2-5.76-1.2-8.34-1.62-3.01-6.55-5.06-9.84-5.17-4.54-.15-6.95,3-9.7,6.02-4.43,4.87-7.87,10.6-12.53,15.29-4.53,4.57-9.59,8.87-15.03,12.32-2.47,1.57-5.11,3.33-7.94,4.17-2.48.74-4.92.44-7.47.44-7.91-.01-12.37,4.96-12.17,12.74.08,3.1.88,6.78,3.45,8.64,2.65-1.71,6-2.51,9.04-2.6,1.36-.04,2.59.13,3.82.34Z"/>
        <path class="cls-4" d="m120.01,269.32c3.43,2.6,9.28-.05,13.85.06-.66-1.4-1.54-2.57-3.22-3.22-2.32-.91-4.73-1.25-6.89-2.59-.12-.08-.1-.25.02-.32,2.81-1.79,5.93-3.06,9.08-2.02-1.46-2.54-3.16-4.95-4.7-7.44-1.59-2.57-2.64-5.34-4.45-7.77-1.58-2.12-3.66-4.3-5.53-6.6.29,3.13.41,6.27.26,9.32-.17,3.72-.34,7.45-.51,11.17-.15,3.21-.89,7.15,2.09,9.41Z"/>
        <path class="cls-4" d="m162.22,297.71c1.63-.21,3.24.03,4.84.38,3.97.87,7.99.4,7.55-4.74-.46-5.42-4.54-8.2-7.74-12.06-2.55-3.08-4.33-7.1-5.91-10.76-2.19-5.09-3-10.69-5.12-15.85-1.61-3.9-2.57-7.56-2.97-11.77-.55-5.73.86-10.4,1.45-15.97.48-4.54-2.1-7.94-3.81-11.9-.5-1.17-1.1-2.32-1.86-3.24-2.95-2.06-7.04-2.11-8.61,1.57-.84,1.98-1.23,4.23-2.41,6.06-.28.44-.59.79-.9,1.1-.62.86-1.37,1.59-2.34,2.06-1.57.76-3.69.76-5.37.56-2.79-.34-4.08-1.74-6.96-.83-7.16,2.26-1.42,11.03,1.75,14.62,5.51,6.22,9.45,13.79,13.54,20.99,1.79,3.16,3.42,6.84,4.58,10.27.68,2.03.93,4.08.97,6.15.29,1.54.51,3.09.59,4.63.33,5.86-.38,11.48,1.14,17.26.59,2.25,1.42,4.99,2.53,7.08,2.12,4.01,5.22,3.57,7.72.33,2.17-2.81,3.49-5.45,7.34-5.96Zm-28.35-58.29c-.61-.54-1-.99-1.76-1.3-.73-.3-1.46-.62-2.15-1.01-1.43-.8-2.58-2.05-3.54-3.36-1.07-1.46-1.06-3.38.53-4.49,1.36-.95,3.68-.62,4.39,1.06.56,1.34,1.3,2.65,2.22,3.79.45.56.97,1.04,1.4,1.61.51.69.72,1.44,1.05,2.2.62,1.42-1.04,2.46-2.14,1.49Zm17.38,57.06c-4.28-3.48-4.29-10.08-4.26-15.11.05-7.33-.38-14.35-2.71-21.36-.23-.7.8-.96,1.14-.41,3.24,5.31,6.3,9.9,7.75,16.06.71,3.02,1.16,5.84,1.28,8.95.07,1.78-.55,5.69.89,7.08,2.58,2.49-1.3,7.05-4.08,4.79Z"/>
        <path class="cls-4" d="m265.49,410.32c.66.66,1.4,1.3,2.25,1.95,2.4,1.84,4.03,4.16,3.84,7.34-.46,7.7-6.31,11.51-13.37,12.55-7.01,1.03-15.62-1.39-17.27-9.26-.8-3.8,1.18-6.12,2.76-9.32.03-.05.04-.11.07-.16-2.32,1.06-5,1.69-6.99,2.34-3.59,1.17-7.23,2.22-10.85,3.3-3.29,1.85-6.83,3.44-10.01,5.16-5.57,3.01-10.88,6.39-15.8,10.42-1.1.9-2.22,1.87-2.96,3.1-1.37,2.25-1.07,2.27,1.09,2.6,3.29.51,6.55.23,9.85,0,4.99-.34,11.13-1.08,14.7,3.2,2.14,2.57,2.05,5.05,5.9,5.68,3.27.54,6.64.53,9.94.71,2.12.11,4.24.24,6.36.37,8.39-.3,16.51-1.56,24.77-3.25,8.78-1.8,17.73-3.85,26.22-6.75,7.3-2.49,15.14-5.14,22.09-8.5,1.02-.49,1.67.91.79,1.52-3.19,2.22-6.99,3.59-10.4,5.47-3.6,1.99-7.25,3.93-10.92,5.79-1.71.86-3.43,1.66-5.17,2.41,1.36-.04,2.7-.16,3.82-.6.27-.11.52-.07.73.03,6.81-2.37,13.26-5.49,19.79-8.52,7.32-3.4,14.68-7.33,20.77-12.62.48-.41,1.16.18.83.71-3.83,6.21-9.61,9.65-15.61,13.51-6.2,3.99-13.25,7.22-20.12,9.91-5.53,2.17-11.06,3.23-16.77,4.64-6.7,1.65-13.27,3.73-19.98,5.41-12.69,3.18-24.98,5.18-38.07,5.71-8.25.33-16.83,1.2-25.24.93,1.63.6,3.37,1.21,5.14,1.73,6.21.58,12.45.88,18.8.85,11.97-.06,24.82-.96,36.54-3.48,6.64-1.43,13.23-1.96,19.74-4.13,5.59-1.87,11.08-4.05,16.79-5.53,5.95-1.54,11.65-4.25,17.34-6.6,6.02-2.49,10.35-5.23,14.79-9.92,3.61-3.82,10.43-7.99,11.78-13.15,1.79-6.86-4.77-12.41-10.43-15.02-5.83-2.68-12.75-2.72-19.06-3.11-6.1-.38-12.08-.58-18.19-.46-10.01.2-20.38,1.31-30.3,3.06Z"/>
        <path class="cls-4" d="m174.94,310.66c.41-.51,1.35-.34,1.9-.39,1.55-.14,3.24.54,4.97.22,1.53-.29,2.98-.89,4.46-1.39,6-2.05,11.46-1.97,17.57-.36,5.91,1.55,12.02,2.36,17.71,4.51,2.04.77,4.14,1.27,5.92,2.46-.91-5.14-1.93-10.25-2.98-15.36-5.09-1.74-10.07-3.29-15.3-4.73-4.46-1.22-10.26-1.46-14.28-3.84-3.91-2.31-5.56-6.94-9.22-9.47-3.68-2.54-8.68-4.12-13.1-3.16,1.34,1.46,2.77,2.83,3.98,4.39,4.45,5.71,6.11,20.04-4.23,21.15-3.49.37-7.72-3.4-10.99-.6-.74.64-1.31,1.7-1.88,2.73.01,1.41.17,2.9.33,3.38,1.23,3.81,4.36,5.17,7.58,6.95,3.17,1.76,6.72,2.34,10.18,3.36,2.61.77,5.55,1.88,8.28.96,1.36-.46,2.55-1.57,3.91-2.1,6.56-2.59,15.72-.51,22.47.59,3.39.56,6.76,1.45,9.98,2.67-.3-.22-.62-.42-.97-.59-2.25-1.11-4.86-2.04-7.28-2.72-4.65-1.3-9.24-2.9-13.93-4.1-3.44-.88-6.52-1.01-9.98-.22-2.52.57-4.99,1.67-7.59,1.86-3.67.27-6.39-1.35-7.72-4.76-.15-.38-.22-.86.06-1.22.06-.08.12-.15.18-.23Z"/>
        <path class="cls-4" d="m250.18,366.79c-1.04-7.3-2.61-14.58-3.86-21.84-1.29-7.51-2.79-14.95-3.93-22.5-2.22-14.69-5.6-29.14-8.53-43.71-1.58-7.85-3.59-15.53-5.15-23.42-1.18-5.96-3.58-12.89-3.86-19.27-.88-2.29-1.13-4.35-.7-7.18.61-4.02,3.16-7.6,4.87-11.24,1.98-4.22,4-8.43,6.1-12.59,3.81-7.57,8.57-14.62,12.38-22.19,3.81-7.56,7.74-14.92,11.97-22.24,4.4-7.61,7.7-15.65,12.67-22.95,5.48-8.04,8.5-17.16,12.64-25.89,7.26-15.32,14.7-30.54,21.99-45.84,3.76-7.89,7.49-15.65,10.61-23.84,2.85-7.48,6.86-16.51,6.99-24.68-1.02-1.64-2.86-2.36-5.08-3.06-.42-.13-.85-.24-1.29-.34-9.64-.35-19.43-1.08-29.02-1.97-10.9-1.01-21.74-2.95-32.71-2.96-9.42-.01-18.78,1.35-28.14,2.24-9.49.9-18.99,1.78-28.46,2.85-19.19,2.16-38.27,5.16-57.02,9.89-18.51,4.67-36.46,11.14-53.99,18.68-7.77,3.34-15.6,6.71-23.15,10.54-4.61,2.34-8.46,5.49-12.24,8.78-.16.3-.38.59-.69.85-3.32,2.83-5.51,4.6-3.79,9.01.98,2.5,2.38,4.5,3.89,6.71,1.89,2.77,3.71,5.53,5.64,8.21.53-.99,1.19-1.91,2.02-2.71,3.79-3.69,9.09-5.36,13.47-8.23-3.86-.26-7.74-.85-11.52-1.51-3.69-.64-5.25-1.33-7.84-3.91,0,0,0-.02,0-.03.19-.15.4-.25.62-.35,0-.12,0-.23.02-.33-.11-.41,0-.89.27-1.23.12-.52.38-1.01.82-1.43,0,0-.02-.02-.03-.02,1.72-1.81,4.65-2.46,6.85-3.53,2.79-1.35,5.23-3.19,8.02-4.51,6.38-3.03,12.86-6.28,19.44-8.86,6.91-2.7,13.82-5.25,20.89-7.6,3.55-1.18,7.13-1.94,10.77-2.74,3.21-.71,6.5-2.13,9.82-1.9.54.04.62.83.08.95-3.48.76-6.95,2.83-10.32,4.08-3.61,1.34-7.06,2.85-10.53,4.51-6.4,3.06-12.97,5.5-19.44,8.4-5.99,2.68-11.98,5.76-17.82,8.72-2.24,1.14-4.3,2.55-6.49,3.78.59-.03,1.18-.07,1.77-.1,3.95-.2,7.94-.18,11.9-.47,2.14-3.55,4.08-7.3,7.28-9.77,4.64-3.58,9.17-1.01,12.19,3.16.98,1.35,1.66,2.74,2.12,4.17,3.31-.37,6.63-.74,9.94-1.14,18.2-2.18,36.26-4.3,54.29-7.72,8.13-1.54,16.15-3.64,24.31-5,8.5-1.41,17.09-3.1,25.44-5.22,17.3-4.39,34.29-9.95,51.55-14.42,8.42-2.18,16.93-4.1,25.14-6.99,3.43-1.21,7.08-1.55,10.58-2.51,2.05-.56,4.03-1.4,6.06-1.98-1.91-.72-4.37-.78-6.1-1.02-2.98-.42-5.86-.4-8.81-.66-.39-.04-.47-.65-.06-.72,1.73-.3,3.06-.96,4.83-1.07,2.06-.12,4.15-.09,6.21-.13,2.39-.04,5.43.05,7.36,1.73.6.52.84,1.11.65,1.92-.18.77-.62,1.09-.96,1.78-.2.39-.53.57-.89.59-.18.18-.4.33-.69.42-3.39,1.06-6.38,3.55-9.78,4.75-3.81,1.35-7.45,2.99-11.27,4.32-9.26,3.21-18.94,5.04-28.29,7.97-33.65,10.53-68.13,17.83-102.8,23.86-17.68,3.07-35.57,5.15-53.44,6.64-.83.07-1.65.15-2.48.24,0,1.89-.19,3.83-.46,5.79,3.66-.47,7.92.25,11.29-.13,7.19-.81,14.27-2.08,21.5-2.73,7.14-.64,14.48-1.13,21.54-2.33,5.74-.98,12.17-1.19,17.76-2.68.89-.24,1.64,1.08.86,1.65-3.65,2.64-10.18,2.92-14.45,4.4-6.96,2.4-14.1,3.26-21.37,4.28-7.65,1.07-15.2,1.97-22.8,3.34-3.03.55-6.11.76-9.19.79-1.41.01-4.56-.39-5.48.05-.12.06-.24.09-.36.13-.25,4.95-.1,9.99-1.15,14.76-.19.84-.42,1.9-.73,3,6.56-.4,13.58.2,19.73,1.92,4.63,1.3,9.82,2.13,14.27,3.87,3.23,1.26,6.08,3.59,9.29,4.77,2.58-2.61,5.93-4.11,9.57-4.1-.49-5.04,2.8-9,7.26-11.67,6.36-3.81,13.98-2.65,20.86-4.82,7.45-2.34,12.16-8.02,18.6-11.89,10.22-6.14,7.64,17.15,6.6,20.75-.97,3.33-2.55,6.84-4.38,10.19,6.09-2.85,12.76-4.92,19-7.42,6.09-2.44,13.03-3.83,19.56-4.33,2.93-.23,5.99-.57,8.95-.42,1.39-.04,2.77-.08,4.14-.13,4.2-.16,8.41.22,12.45,1.41,3.43,1.01,7.45,1.55,10.07,4.2.97.98,1.41,1.97,1.63,3.02.51.92.85,1.98.99,3.16.81,7.08-4.37,12.71-7.09,18.79-5.18,11.56-11.66,22.95-18.47,33.61-.19.3-.4.58-.6.87-.5,2.48-2.46,5.38-3.26,7.24-1.55,3.61-3.13,7.18-5.06,10.6-2.25,3.98-4.95,7.74-7.27,11.7-2.23,3.81-3.66,7.83-5.62,11.74-1.86,3.71-4.52,7.05-6.9,10.43-1.68,2.37-3.21,4.64-6.25,5.36-3.71.89-6.74-1.01-9.27-3.7-3.55-2.52-7.12-5.02-10.44-7.82-3.93-3.31-7.51-6.94-11.23-10.46-1.68.75-3.39,1.35-5.15,1.83,3.33,2.44,6.64,4.89,9.86,7.42,5.68,4.45,10.02,9.41,14.71,14.84,1.68,1.95,3.41,3.9,4.79,6.07,1.16,1.47,2.18,3.02,2.55,4.78.13.18.23.39.28.65.03.18.06.32.08.46,2.58,15.72,7.44,31.2,10.92,46.68,3.25,14.45,6.86,28.81,9.06,43.46,2.24,14.9,5.77,29.62,7.67,44.56,1.02,8,2.8,15.72,4.2,23.64.98,5.58,2.32,11.4,2.87,17.14.35.97.56,1.99.48,3.25-.19,3.28-3.59,6.01-2.89,9.29.97,4.55,7.08,5.32,10.86,4.82,3.93-.52,8.56-2.19,8.7-7,.11-3.64-3.01-3.45-5.14-5.38-.23-.21-.44-.43-.64-.67-.75-.13-1.4-.61-1.5-1.5-.06-.53-.14-1.06-.23-1.58-.46-1.26-.73-2.61-.89-3.97-.45-1.74-.93-3.47-1.3-5.26-.85-4.14-1.56-8.31-2.45-12.44-1.61-7.5-3.14-14.83-4.23-22.46Zm10.34-347.48c-9.65,4.15-21.35,3.56-31.63,4.59-10.71,1.07-21.48,3.26-32.26,3.64-.73.03-.72-1.02-.1-1.2,9.98-3.02,20.22-6.49,30.63-7.68,10.68-1.21,21.41-1.48,32.08-2.87,1.99-.26,3.38,2.62,1.29,3.52Zm19.39,90.02c-.21-.01-.19-.33.02-.32.21.01.19.33-.02.32Zm-7.43-55.59c-4.98.76-10.61,1.91-15.65,1.31-.46-.05-.57-.75-.07-.84,5.33-1,10.77-4.31,15.92-6.2,4.83-1.77,10.01-3.04,14.57-5.43,4.32-2.27,8.38-4.6,12.84-6.59,4.07-1.81,8.03-4.4,12.47-5.19,1.8-.32,3.06,1.9,1.66,3.19-2.06,1.91-3.81,3.67-5.7,5.23-1.84,2.8-4.47,4.99-6.2,7.89-1.82,3.05-2.44,6.22-3.61,9.5-2.31,6.51-6.29,11.79-10.79,16.88-1.05,1.18-2.82-.26-2.42-1.57,1.15-3.83,1.19-7.67,2.31-11.5.15-1.37.28-2.75.41-4.12.07-.75-.33-2.57,0-2.23-.44-.63-.93-.95-1.66-1.47-.69-.49-1.33-.76-1.86-1.45-.02-.03-.04-.06-.06-.08-3.97,1.2-8.1,2.07-12.15,2.69Zm-16.83,361.88c.19.13.35.28.5.44,0,0,0,0,.01,0,.01.02.02.03.03.05.25.3.43.65.52,1.02.14.4.2.82.22,1.28.05,0,.1,0,.12,0,.74.06,1.5.23,2.22.42,2.51.65,2.19,4.51-.24,4.99-2.27.45-4.88.74-6.62-1.21-1.55-1.74-1.48-5.07.08-6.74.78-.84,2.26-.85,3.17-.25Z"/>
        <path class="cls-4" d="m289.02,123.49c-2.35,5.58-4.78,11.36-8.19,16.6-4.16,6.41-7.6,12.82-11.26,19.62l-1.67,3.1c-5.02,9.29-10.27,18.65-15.35,27.7-3.11,5.54-6.22,11.08-9.3,16.63-.97,1.75-1.9,3.54-2.7,5.1,1.39.95,2.55,1.97,3.76,3.03.41.36.83.73,1.28,1.11,1.79,1.54,4.25,2.12,6.86,2.74.72.17,1.44.34,2.15.53l.76.2c4.25,1.15,7.92,2.14,12.15,2.15.67,0,1.34,0,2.02,0-.41-.91-.71-1.82-.88-2.7-1.55-8.15,2.4-17.1,9.6-21.75.44-.29.87-.55,1.29-.8,1.56-.94,2.59-1.55,3.32-3.01,1.14-2.28,1.54-5.19,1.74-7.19.36-3.65.12-7.27-.14-11.1-.05-.67-.09-1.34-.13-2.01-.07-1.05-.17-2.19-.28-3.39-.61-6.7-1.38-15.04,2.95-20.36.75-.92,1.66-1.74,2.68-2.42-1.14-2.66-1.54-5.84-1.06-8.86.32-2.03,1.02-3.87,1.7-5.66.71-1.87,1.38-3.64,1.58-5.49.34-3.1.36-6.43.06-10.59-1.02,2.24-1.99,4.54-2.94,6.78Z"/>
        <path class="cls-4" d="m331.57,270.28c2.77-3.7-.39-8.35-4.44-9.86-.36-.14-.4-.77.04-.82,4.25-.51,8.24-.65,11.72,2.34,4.23,3.64,3.79,8.48.94,12.8-1.16,1.76-2.42,3.55-3.84,5.12-1.87,2.06-4.97,4.43-5.28,7.44-.24,2.33,1.39,4.73,1.62,7.11,0,.09,0,.17.02.26.77-1.48,1.43-2.95,2.04-4.08,1.04-1.92,2.12-3.22,3.67-4.71,2.27-2.16,3.95-4.61,5.89-7.06,1.63-2.05,3.13-3.97,4.22-6.39,1.65-3.68.59-6.46-1.63-9.63-1.57-2.25-3.44-4.61-5.62-6.28-2.61-1.99-5.58-2.64-8.53-3.89-4.86-2.06-9.21-5.4-14.33-6.87-6.64-1.91-12.21,4-15.94,8.94-3.4,4.51-6.3,9.26-9.81,13.71-1.83,2.33-3.15,4.99-3.61,7.94-.36,2.3.13,3.99,1.33,5.27,2.27-.39,4.84,0,7.07-.35,5.41-.82,9.73-3.1,15.35-2.29,1.95.28,3.62.78,5.08,1.57,2.08-.23,4.11-.62,6.02-1.3,2.35-3.31,5.6-5.74,8.03-8.99Z"/>
        <path class="cls-4" d="m316.22,185.78c.31-3.59,1.14-7.14,2.39-10.52,1.41-3.79,4.17-7.55,4.39-11.62.24-4.58-1.47-9.07-6.8-8.77-3.65.2-7.29,2.35-10.92,2.02-3.33-.31-7.37-4.51-10.63-2.1-2.76,2.04-2.01,8.22-1.83,10.99.53,8.07,1.44,16.91-.01,24.91-.67,3.68-1.74,7.75-4.28,10.61-2.05,2.31-5.11,3.3-7.22,5.52-2.71,2.87-4.7,8.59-2.93,12.41,1.05,2.28,3.22,3.59,5.29,4.97,5.13.38,10.22,1.18,15.02,3,.32-.6.85-1.11,1.64-1.42,2.3-.9,4.39-5.35,5.62-7.36,2.21-3.61,2.98-7.49,4.44-11.38.44-1.18,2.16-1.13,2.47.12,1.24,5.06.9,11.32-1.55,15.98-1.4,2.67-2.88,5.92-5.25,7.96,1.33.95,2.68,2.05,3.88,3.26.35-.51.87-.93,1.57-1.17,1.02-.36,2.47-2.66,3.19-3.45,1.81-2,3.06-4.02,4.02-6.55,1.55-4.08,2.58-9.74,1.92-14.06-1.2-7.97-5.12-15.08-4.4-23.36Zm-2.5-12.14c-.58,1.63-1.73,2.5-2.67,3.86-.45.66-1.49.16-1.25-.6.38-1.21.3-2.91.3-4.2,0-1.47-.29-2.95-.4-4.42-.23-3.2,5.47-2.98,5,.24-.24,1.68-.4,3.51-.97,5.11Z"/>
        <path class="cls-4" d="m251.8,251.16c-6.14-2.06-12.59-3.49-18.83-5.25-.72-.2-1.43-.38-2.15-.55,0,.1.02.21.03.31,1.21,5.29,2.55,10.57,3.91,15.83.5.17,1.01.35,1.56.49,2.78.7,5.71,1.03,8.54,1.49,4.48.73,8.58,2.16,12.91,3.45,7.88,2.34,16.09,5.18,24.24,5.44.75-2.41,1.94-4.71,3.34-6.81-5.1-3.02-10.34-5-15.89-7.3-5.83-2.43-11.66-5.08-17.66-7.09Z"/>
        <path class="cls-4" d="m329.72,94.96c-1.87-1.4-6.05-.26-8.09.09-2.28.39-4.3.44-6.55-.09-2.72-.65-5.08-2.99-7.61-3.53-3.97-.85-6.31,3.9-6.74,6.99-.84,6.08-.3,12.57.12,18.64.39,5.66.19,11.65-1.6,17.07-.91,2.75-2.39,5.25-2.46,8.18-.02.85.19,2.72.66,4.51.31-.24.66-.43,1.04-.57.24-.09,1.38-.31,1.7-.3.44-.3.85-.69,1.42-.84,1.75-.47,3.91.65,5.54.12,4.33-1.42,5.57-11.16,6.99-14.91.1-.26.46-.24.53.03,1.09,4.02,1.59,8.5,1.35,12.67-.09,1.49-.57,3.34-1.38,5.01,1.27-.23,2.55-.34,3.84-.19.74.09,1.5.28,2.26.54.54-2.6-.25-6-.46-8.24-.25-2.72.03-5.32.52-8,1.23-6.71,3.58-12.89,5.85-19.29,1.29-3.62,7.43-14.62,3.08-17.87Zm-6.17,8.84c-.41,2.21-1.39,5.03-3.89,5.96-.61.23-1.33-.37-.91-1.01.97-1.47.31-3.55.16-5.18-.14-1.53.79-3.02,2.47-2.93,1.7.08,2.45,1.65,2.17,3.16Z"/>
        <path class="cls-4" d="m264.78,328.74c2.26-2.02,3.98-6.55,4.34-10.68-.17-.42-.35-.84-.54-1.27-1.16-2.62-2.29-5.64-2.47-8.62-6.48-2.47-14.81-2.03-21.45-4.55,1.36,6.35,2.6,12.72,3.57,19.14.19,1.25.39,2.49.6,3.74,3.2.21,6.5.7,9.65,1.04,2.13.23,4.18.88,6.3,1.18Z"/>
        <path class="cls-4" d="m329.46,50.07c.04-1.73.6-5.67-.47-7.07-1.23-1.6-3.42-1.64-5.24-.85-.01.03-.02.07-.03.1-2.98,9.2-6.87,17.82-10.98,26.54-2.54,5.39-5.11,10.77-7.68,16.15,1.99-.31,4.1-.03,6.19,1.05,2.56,1.33,4.3,2.15,6.34,2.42.63-1.93,2.38-3.79,3.26-5.6,1.26-2.58,1.59-5.36,2.71-7.93.44-1.02,1.72-.91,2.07.1,1.61,4.59,1.51,8.84-.14,12.91.62-.03,1.25-.05,1.88-.04.02-.03.04-.06.06-.09,6.04-7.28,1.81-17.04,1.5-25.44-.15-4.07.44-8.18.54-12.25Z"/>
        <path class="cls-4" d="m300.46,245.97c1.94-1.91,3.97-3.71,6.18-5.08-1.08-1.51-3.92-3.66-5.14-4.48-3.3-2.23-8.08-3.85-12-4.4-7.75-1.07-15.49-.64-23.27-.8-6.87-.15-14.4-2.17-20.79-4.67-3.98-1.56-7.33-5.04-9.87-8.68-.04.08-.08.17-.12.25-1.65,3.32-3.99,6.79-5.27,10.25-.55,1.49-.79,2.95-.83,4.4,2.2-.03,3.35,1.06,5.52,1.82,2.7.95,5.75,1.13,8.54,1.73,6.67,1.42,13.56,3.79,20.04,5.95,6.74,2.26,13.73,5.26,20.88,5.59,5.23.24,10.41-.59,15.58-1.27.2-.2.38-.41.58-.61Z"/>
        <path class="cls-4" d="m183.73,209.45s.01,0,.02,0c.15.03.13-.04-.02,0Z"/>
        <path class="cls-4" d="m183.55,209.4c.07.03.12.05.17.06,0,0,0,0,0,0-.06-.02-.12-.03-.17-.06Z"/>
        <path class="cls-4" d="m92.1,137.92c-.19-.49-.42-.98-.65-1.47-.7,2.75-1.1,5.59-1.39,8.4-.3,2.9-.36,5.65-.22,8.34.68-.91,1.41-1.76,2.04-2.51.9-1.07,2.22-2.79,3.68-4.18-.03-.08-.06-.16-.08-.24-.54-1.71-.87-3.47-1.69-5.08-.57-1.11-1.23-2.09-1.69-3.26Z"/>
        <path class="cls-4" d="m91.12,64.58c-1.13.84-2,2.94-2.76,4.13-4.02,6.33-7.84,11.01-14.32,14.87-4.41,2.63-9.45,4.62-10.02,10.19-.43,4.14.66,7.22,3.48,9.54,1.5.34,2.96.99,4.45,1.59,2.08.83,4.92,1.95,7.17,1.2,1.57-.53,3.08-2.13,4.52-2.93.16-.09.32-.16.49-.24.05-.51.23-.99.61-1.39.43-1.9.82-3.8,1.26-5.7.29-1.26.74-2.57.81-3.87.05-1.03-.1-1.61.28-2.58.33-.84,1.38-.89,1.85-.15,2.31,3.64,3.26,8.06,2.61,12.3.45.04.89.11,1.32.2.27-.22.56-.4.88-.54-.86-.12.13-1.45.39-2.49.36-1.44.55-2.87.68-4.35.37-4.28.32-8.59.87-12.86.56-4.27,2.3-9.13,1.15-13.43-.73-2.75-2.42-5.93-5.73-3.46Z"/>
        <path class="cls-4" d="m182.48,210.4c-.82.72-1.68,1.47-2.42,2.28-.87.96-1.49,2.13-2.19,3.21-.03.05-.08.11-.12.16.66.05,1.32.11,1.95.21,5.51.88,9.75,3.38,12,8.56,1.77,1.23,3.58,2.38,5.69,3.02,2.48.75,5.01,1.06,7.53,1.57-.54-.61-1.07-1.23-1.59-1.88-2.27-2.83-4.58-5.66-6.96-8.42-3.22-3.72-7.24-6.86-11.4-9.82-.37.2-.8.28-1.22.16,0,0-.01,0-.02,0-.1.02-.24.08-.42.25-.26.24-.55.46-.82.69Z"/>
        <path class="cls-4" d="m211.79,242.12c-5.61-1.04-11.22-2.12-16.59-4.07-4.96-1.8-7.18-3.86-9.37-8.66-2.53-5.55-7.84-6.59-13.6-6-3.05.31-5.83,1.4-8.25,3.27-1.24.96-3.93,2.57-4.94,4.1,0,.09,0,.17-.01.25-.03.38-.15.69-.32.94-.5,2.9-.64,5.95-.42,8.98,4.86-5.02,13.56-6.4,19.45-2.11,2.19,1.6,4.33,3.5,6.29,5.38,1.61,1.55,2.59,3.26,3.67,5.01,2.87,1.89,5.87,3.49,8.83,4.38,6.32,1.91,12.53,3.47,18.96,4.81-.1-.5-.22-1-.32-1.51-.91-4.58-2.53-9.73-3.37-14.77Z"/>
        <path class="cls-4" d="m183.6,255.54c-3.14-4.18-6.19-8.95-11.12-11.39-4.21-2.08-10.71.22-12.78,4.51.27.87.56,1.73.9,2.56,2.6,6.37,4.06,13.15,6.93,19.35.61,1.31,1.13,2.62,1.74,3.88,2.35-2.21,6.56-2.63,9.54-2.14,4.92.8,9.33,2.86,12.85,6.15.81.47,1.62.96,2.43,1.38,3.24,1.69,6.57,3.31,10.14,4.21,5.95,1.5,12.16,1.56,17.69,4.17-.55-2.63-1.1-5.26-1.63-7.9-.66-3.26-1.39-6.5-2.13-9.73-1.84-.47-3.69-.95-5.53-1.45-5.44-1.48-10.92-2.88-16.01-5.34-4.47-2.16-9.98-4.17-13.04-8.26Z"/>
        <path d="m366.97,273.2c-3.23-2.77-6.28-3.65-8.99-3.91-.02-3.96-1.75-8.19-5.25-12.85-4.6-6.12-9.47-8.91-16.86-11.91-2.09-.85-4.08-1.91-6.19-3.04-3.24-1.74-6.57-3.52-10.31-4.46,3.77-3.72,6.64-9.1,7.97-13.44,2.93-9.55,1.39-17.71-.7-25.1-1.34-4.71-2.32-8.65-1.79-12.99.62-5.13,2.72-9.64,4.83-13.82,3-5.96,3.35-15.1-1.16-20.34.82-2.52.88-5.11.8-7.36-.03-.89-.07-1.76-.11-2.6-.17-3.61-.31-6.73.5-10.39,1.31-5.91,3.55-11.76,5.72-17.42.9-2.35,1.83-4.78,2.69-7.2,1.92-5.42,2.02-12.69-1.87-16.95,2.81-5.07,2.96-10.52,2.27-17.02-.13-1.26-.3-2.54-.47-3.82-.36-2.75-.74-5.6-.74-8.29,0-1.78.12-3.62.22-5.4.14-2.29.29-4.66.21-7.04-.37-11.56-4.92-14.6-9.01-14.96.87-3.06,1.43-5.63,1.77-8.07,1.98-5.33,4.67-12.62-3.08-16.64-2.97-1.54-6.57-3.1-10.7-2.95h-.05c-4.82-1.36-10.02-1.48-15.06-1.6-2-.05-3.89-.09-5.71-.21-5.27-.35-10.62-.98-15.79-1.58-4.51-.53-9.17-1.07-13.79-1.44-15.63-1.24-31.64.68-47.13,2.54-4.19.5-8.53,1.02-12.74,1.46-24.29,2.54-42.68,5.45-59.61,9.43-16.71,3.93-34.31,9.82-55.4,18.53-9.12,3.77-18.6,8.2-28.18,13.17-3.97,2.06-8.1,4.41-11.43,7.63-1.28,1.24-2.48,2.53-3.43,3.57-.28.14-.53.29-.76.47l-.16.12c-2.58,1.96-5.93,4.53-7.34,7.96-2.17-.83-4.41-1.52-6.6-2.2-2.59-.8-5.04-1.55-6.93-2.42-12.89-5.92-21.23-7.29-24.79-4.05-2.08,1.89-2.39,4.98-.92,9.19,2.05,5.9,5.65,11.09,8.86,15.49,2.49,3.41,3.9,5.9,4.75,10.1.67,3.34,1.37,6.78,3.24,9.92,1.49,2.49,3.5,4.45,5.45,6.34l.07.07c.47.46.94.94,1.42,1.44,1.64,1.7,3.5,3.62,5.79,4.75.82.4,1.66.71,2.51.92.09,5.4,3.81,8.63,7.14,11.52.87.76,1.77,1.54,2.59,2.34,1.38,1.35,2.64,2.86,3.97,4.45.99,1.18,2,2.4,3.07,3.55,2.49,2.67,4.36,5.14,5.56,7.35-.4,4.26-2.04,8.15-3.77,12.26-1.48,3.52-3.01,7.15-3.76,11.12-.8,4.26-1.4,8.72-.31,12.44,1.1,3.76,4.41,6.82,7.08,9.28l.34.32c2.01,1.86,4.3,3.3,6.58,4.16.02.33.04.66.07.99,1.12,11.58,9.38,17.69,17.38,23.6,2.99,2.21,6.07,4.49,8.69,7.01,5.43,5.22,10.24,9.95,14.14,14.92,2.8,3.58,4.93,7.92,6.98,12.12.28.58.57,1.16.85,1.74-.07,1.35-.15,2.71-.22,4.06-.09,1.63-.18,3.25-.26,4.88-.15,2.81-.31,6,1.87,9.03l.48.68c1.62,2.3,3.64,5.15,6.85,6.07,3.53,1.01,7.44.63,11.14.07.59-.09,1.23-.22,1.91-.36,1.31-.27,2.75-.56,4-.56.11,2.21.14,4.64.1,7.64-.07,5.58.57,24.11,11.94,28.49,1.71.66,3.42.85,5.1.55.27.72.59,1.44.97,2.17,4.11,7.83,15,10.47,21.5,12.05l.44.11c3.66.89,8.21,2,12.27.55,1.26-.45,2.3-1.16,3.21-1.79.67-.46,1.3-.9,1.95-1.19,2.04-.91,4.75-.8,7.37-.54,6.26.62,11.18,1.67,15.48,3.29.93.35,1.87.68,2.81,1.01,1.27.44,2.58.9,3.82,1.4.86.35,1.69.77,2.56,1.23,1.18.61,2.39,1.23,3.74,1.69.24,1.32.48,2.64.72,3.97.51,2.78,1.01,5.56,1.49,8.35.47,2.72.98,5.43,1.49,8.15.84,4.47,1.71,9.1,2.36,13.64,1.09,7.67,2.64,15.06,4.25,22.59.49,2.31.94,4.67,1.38,6.96.35,1.82.69,3.65,1.07,5.46.2.99.44,1.96.68,2.9-.85.22-1.83.39-2.67.54-.9.16-1.75.31-2.42.5-3.44.99-6.24,1.85-8.83,2.71-2.2.73-4.46,1.42-6.65,2.09-4.19,1.28-8.53,2.61-12.73,4.3-9.87,3.97-22.37,9.89-31.53,20.51-5.38,6.24-7.93,11.94-7.58,16.94.5,7.08,4.86,11.8,8.43,14.51,5.54,4.21,11.48,5.08,17.77,6,5.64.83,10.98,1.36,16.18,1.62,1.79.09,3.56.14,5.32.16,12.93.16,26.23-.75,41.87-2.86,7.33-.99,14.45-2.03,21.02-3.85,5.88-1.63,11.75-3.88,17.43-6.05,1.71-.66,3.42-1.31,5.11-1.94,3.78-1.41,7.56-2.97,11.22-4.49,2.2-.91,4.39-1.82,6.6-2.7,6.95-2.77,11.76-5.9,17.14-11.16.96-.94,2.1-1.92,3.31-2.95,3.51-3.01,7.49-6.43,9.06-10.72,2.16-5.92,1.25-11.89-2.57-16.82-9.77-12.6-24.53-13.27-38.8-13.91l-2.64-.12c-12.21-.59-25.96.48-41.97,3.29-.37-2.25-.8-4.5-1.22-6.69-.31-1.63-.63-3.25-.91-4.85-.48-2.73-1.01-5.48-1.53-8.13-.98-5.02-1.99-10.22-2.65-15.42-1.07-8.38-2.67-16.81-4.21-24.95l-.2-1.08c1.19.38,2.43.83,3.74,1.3,2.86,1.03,5.79,2.09,8.74,2.65.29,4.47,1.92,8.27,4.86,11.31,6.34,6.57,14.75,10.26,23.65,10.38,3.77.05,12.81-.36,19.03-5.05,4.41,2.71,9.86,4.46,14.85,4.73.05,0,.1,0,.15,0,6.76.33,12.22-1.91,15.8-6.48,2.91-3.72,4.9-8.16,6.82-12.46.55-1.24,1.1-2.46,1.66-3.65,2.6-5.49,3.83-11.26,5.03-16.85.24-1.14.49-2.29.75-3.44,1.21-5.42,4.04-10.58,6.78-15.57.5-.92,1-1.83,1.49-2.74.4-.74.79-1.45,1.18-2.15,2.45-4.42,4.76-8.6,4.95-14.47.21-6.34-1.96-11.95-5.95-15.37Zm-29.12,80c-1.77,2.45-4.52,3.29-7.39,3.68-1.62.22-3.16.18-4.65-.06.54-1.38.82-2.84,1.32-4.24,5.22-1.23,8.04-3.02,10.81-8.6,1.35-2.72,2.32-5.67,3.15-8.58.28-.97.87-6.28,1.65-6.95,1.02-.88.57-2.5-.62-2.94-4.79-1.77-8.59,9.3-10.39,13.06-.6.06-1.25.23-1.9.35.46-10.97.5-21.94,8.36-30.73,3.66-4.09,6.36-8.9,8.65-13.89.57-1.24,2.56-7.26,3.97-7.53-.04,0,2.91,1.76,2.97,1.83.53.65.87,2.3,1.33,3.08.27.45.84.47,1.16.06,3.03-3.91.47-10.41-3.95-12.44.58-.9,1.11-1.81,1.59-2.74.67.04,1.34.1,2.01.29,2.41.68,4.94,2.67,6.19,4.79,2.48,4.18,1.83,10.14-.03,14.41-3.65,8.37-7.81,16.62-10.31,25.44-2.62,9.27-6.06,17.51-10.54,26.02-1.02,1.93-2.1,3.92-3.38,5.69Zm-25.71-11.62c.59,3.63.83,8.71-1.12,11.95-1.96,3.25-6.3,4.98-9.93,5.4-7.14.81-16.15-1.77-21.6-6.48-3.05-2.64-4.61-4.6-4.91-8.72-.31-4.28,1.26-7.43,2.4-11.4,1.81-6.33.37-11.99-2.22-17.81-2.12-4.74-2.52-8.2.62-12.61,2.42-3.39,5.19-6.76,7.87-9.95,2.36-2.82,5.13-3.41,8.32-3.66,4.28.17,8.41,1.03,12.74,1.77,3.57.62,5.89,1.45,8.25,4.32,2.42,2.96,3.61,6.32,4.74,9.92,1.11,3.55,1.65,6.66.47,10.31-1,3.08-3.21,5.75-4.74,8.6-3.35,6.22-1.94,11.75-.87,18.35Zm-49.12-48.31c-7.19-.23-14.29-.54-21.2-2.43-.88-3.84-1.77-7.68-2.64-11.52-.3-1.34-.62-2.67-.94-4.01,3.11.67,6.22,1.33,9.35,1.95,5.9,1.17,11.49,2.69,17.27,4.34,2.33.66,7.97,1.23,11.75,2.85-1.21,1.19-2.22,2.45-2.97,4.1-2.05,4.54-5.96,4.86-10.62,4.72Zm-4.85,113.69c.15,1.36.43,2.71.89,3.97.09.52.17,1.05.23,1.58.1.88.76,1.37,1.5,1.5.2.23.41.46.64.67,2.13,1.93,5.25,1.73,5.14,5.38-.14,4.81-4.77,6.48-8.7,7-3.77.49-9.88-.28-10.86-4.82-.7-3.28,2.69-6.01,2.89-9.29.07-1.26-.13-2.28-.48-3.25-.54-5.74-1.88-11.56-2.87-17.14-1.39-7.92-3.17-15.63-4.2-23.64-1.91-14.93-5.44-29.66-7.67-44.56-2.2-14.65-5.81-29.01-9.06-43.46-3.49-15.48-8.34-30.97-10.92-46.68-.02-.14-.05-.28-.08-.46-.05-.26-.15-.47-.28-.65-.36-1.77-1.39-3.31-2.55-4.78-1.38-2.18-3.1-4.12-4.79-6.07-4.69-5.43-9.03-10.38-14.71-14.84-3.22-2.53-6.54-4.98-9.86-7.42,1.76-.48,3.47-1.08,5.15-1.83,3.72,3.52,7.3,7.14,11.23,10.46,3.32,2.8,6.9,5.3,10.44,7.82,2.54,2.69,5.56,4.59,9.27,3.7,3.04-.73,4.57-2.99,6.25-5.36,2.38-3.37,5.04-6.72,6.9-10.43,1.96-3.91,3.39-7.92,5.62-11.74,2.31-3.96,5.02-7.71,7.27-11.7,1.94-3.43,3.51-6.99,5.06-10.6.8-1.86,2.76-4.76,3.26-7.24.2-.29.41-.57.6-.87,6.81-10.67,13.29-22.06,18.47-33.61,2.72-6.07,7.9-11.71,7.09-18.79-.13-1.18-.48-2.24-.99-3.16-.22-1.05-.66-2.04-1.63-3.02-2.62-2.65-6.64-3.2-10.07-4.2-4.03-1.19-8.25-1.56-12.45-1.41-1.37.05-2.75.09-4.14.13-2.96-.15-6.02.2-8.95.42-6.52.51-13.47,1.89-19.56,4.33-6.23,2.5-12.9,4.57-19,7.42,1.83-3.34,3.41-6.85,4.38-10.19,1.04-3.6,3.62-26.9-6.6-20.75-6.44,3.87-11.15,9.55-18.6,11.89-6.88,2.16-14.51,1-20.86,4.82-4.46,2.67-7.74,6.63-7.26,11.67-3.64,0-6.99,1.49-9.57,4.1-3.21-1.17-6.07-3.51-9.29-4.77-4.45-1.74-9.65-2.57-14.27-3.87-6.15-1.72-13.17-2.32-19.73-1.92.32-1.1.55-2.16.73-3,1.05-4.77.91-9.81,1.15-14.76.12-.04.24-.07.36-.13.92-.44,4.07-.04,5.48-.05,3.08-.03,6.16-.24,9.19-.79,7.6-1.37,15.15-2.27,22.8-3.34,7.27-1.02,14.41-1.87,21.37-4.28,4.27-1.47,10.8-1.75,14.45-4.4.79-.57.03-1.89-.86-1.65-5.59,1.49-12.01,1.7-17.76,2.68-7.06,1.2-14.4,1.69-21.54,2.33-7.23.65-14.31,1.92-21.5,2.73-3.36.38-7.62-.34-11.29.13.27-1.96.46-3.89.46-5.79.83-.09,1.65-.17,2.48-.24,17.87-1.49,35.76-3.57,53.44-6.64,34.67-6.03,69.15-13.32,102.8-23.86,9.35-2.93,19.02-4.76,28.29-7.97,3.82-1.32,7.46-2.97,11.27-4.32,3.41-1.21,6.4-3.69,9.78-4.75.29-.09.51-.24.69-.42.36-.02.69-.2.89-.59.34-.69.78-1.02.96-1.78.19-.81-.05-1.4-.65-1.92-1.93-1.68-4.97-1.77-7.36-1.73-2.06.04-4.15.01-6.21.13-1.78.1-3.1.77-4.83,1.07-.41.07-.34.69.06.72,2.95.27,5.83.25,8.81.66,1.73.24,4.19.31,6.1,1.02-2.03.58-4.02,1.42-6.06,1.98-3.5.97-7.15,1.3-10.58,2.51-8.21,2.89-16.72,4.81-25.14,6.99-17.26,4.47-34.25,10.03-51.55,14.42-8.35,2.12-16.95,3.8-25.44,5.22-8.16,1.36-16.18,3.45-24.31,5-18.03,3.42-36.09,5.54-54.29,7.72-3.31.4-6.63.77-9.94,1.14-.46-1.43-1.14-2.82-2.12-4.17-3.02-4.17-7.54-6.74-12.19-3.16-3.2,2.47-5.13,6.23-7.28,9.77-3.96.28-7.95.27-11.9.47-.59.03-1.18.06-1.77.1,2.19-1.23,4.25-2.65,6.49-3.78,5.84-2.96,11.84-6.04,17.82-8.72,6.46-2.9,13.04-5.34,19.44-8.4,3.47-1.66,6.92-3.17,10.53-4.51,3.37-1.25,6.84-3.32,10.32-4.08.53-.12.46-.91-.08-.95-3.32-.23-6.61,1.2-9.82,1.9-3.65.8-7.22,1.56-10.77,2.74-7.07,2.34-13.98,4.89-20.89,7.6-6.59,2.57-13.07,5.82-19.44,8.86-2.78,1.32-5.23,3.17-8.02,4.51-2.2,1.06-5.13,1.71-6.85,3.53,0,0,.02.02.03.02-.44.42-.7.92-.82,1.43-.27.35-.38.82-.27,1.23-.02.1-.03.21-.02.33-.22.09-.43.2-.62.35,0,0,0,.02,0,.03,2.59,2.57,4.16,3.27,7.84,3.91,3.78.65,7.66,1.24,11.52,1.51-4.38,2.87-9.68,4.54-13.47,8.23-.83.8-1.49,1.72-2.02,2.71-1.93-2.68-3.75-5.44-5.64-8.21-1.51-2.21-2.91-4.21-3.89-6.71-1.73-4.41.46-6.18,3.79-9.01.31-.27.54-.56.69-.85,3.78-3.3,7.63-6.45,12.24-8.78,7.55-3.83,15.38-7.2,23.15-10.54,17.53-7.54,35.48-14.01,53.99-18.68,18.74-4.73,37.82-7.72,57.02-9.89,9.48-1.07,18.97-1.96,28.46-2.85,9.36-.88,18.72-2.25,28.14-2.24,10.97.01,21.81,1.95,32.71,2.96,9.59.89,19.38,1.62,29.02,1.97.44.1.87.2,1.29.34,2.22.71,4.06,1.43,5.08,3.06-.13,8.18-4.14,17.2-6.99,24.68-3.12,8.18-6.85,15.95-10.61,23.84-7.29,15.3-14.73,30.52-21.99,45.84-4.14,8.73-7.16,17.85-12.64,25.89-4.97,7.3-8.27,15.34-12.67,22.95-4.23,7.33-8.16,14.68-11.97,22.24-3.82,7.57-8.58,14.62-12.38,22.19-2.09,4.16-4.11,8.37-6.1,12.59-1.71,3.64-4.26,7.22-4.87,11.24-.43,2.83-.19,4.9.7,7.18.29,6.39,2.68,13.31,3.86,19.27,1.56,7.89,3.57,15.57,5.15,23.42,2.93,14.57,6.31,29.02,8.53,43.71,1.14,7.56,2.64,14.99,3.93,22.5,1.25,7.27,2.82,14.54,3.86,21.84,1.09,7.63,2.62,14.96,4.23,22.46.89,4.14,1.6,8.31,2.45,12.44.37,1.79.85,3.52,1.3,5.26Zm55.82.76c6.32.4,13.23.44,19.06,3.11,5.66,2.6,12.22,8.16,10.43,15.02-1.35,5.16-8.17,9.34-11.78,13.15-4.44,4.7-8.77,7.43-14.79,9.92-5.7,2.36-11.39,5.06-17.34,6.6-5.7,1.48-11.19,3.66-16.79,5.53-6.51,2.17-13.1,2.7-19.74,4.13-11.72,2.53-24.57,3.42-36.54,3.48-6.35.03-12.59-.27-18.8-.85-1.77-.52-3.51-1.13-5.14-1.73,8.41.26,16.99-.6,25.24-.93,13.09-.53,25.39-2.53,38.07-5.71,6.71-1.68,13.27-3.76,19.98-5.41,5.71-1.41,11.24-2.46,16.77-4.64,6.87-2.7,13.92-5.93,20.12-9.91,6.01-3.87,11.78-7.3,15.61-13.51.33-.53-.35-1.12-.83-.71-6.1,5.29-13.45,9.22-20.77,12.62-6.53,3.03-12.98,6.15-19.79,8.52-.2-.11-.45-.14-.73-.03-1.13.44-2.47.56-3.82.6,1.74-.75,3.46-1.55,5.17-2.41,3.67-1.86,7.32-3.8,10.92-5.79,3.41-1.88,7.2-3.25,10.4-5.47.88-.61.23-2.01-.79-1.52-6.94,3.36-14.78,6.01-22.09,8.5-8.49,2.9-17.44,4.95-26.22,6.75-8.26,1.69-16.38,2.95-24.77,3.25-2.12-.13-4.24-.26-6.36-.37-3.31-.17-6.67-.17-9.94-.71-3.85-.63-3.76-3.11-5.9-5.68-3.57-4.28-9.72-3.54-14.7-3.2-3.3.23-6.56.51-9.85,0-2.16-.33-2.46-.35-1.09-2.6.75-1.23,1.86-2.2,2.96-3.1,4.91-4.03,10.23-7.41,15.8-10.42,3.18-1.72,6.72-3.3,10.01-5.16,3.63-1.09,7.27-2.14,10.85-3.3,1.99-.65,4.66-1.28,6.99-2.34-.03.05-.04.11-.07.16-1.58,3.2-3.56,5.52-2.76,9.32,1.65,7.87,10.25,10.29,17.27,9.26,7.06-1.04,12.91-4.84,13.37-12.55.19-3.17-1.44-5.5-3.84-7.34-.85-.65-1.6-1.29-2.25-1.95,9.92-1.75,20.28-2.86,30.3-3.06,6.11-.12,12.09.08,18.19.46Zm-139.28-95.61c1.33,3.41,4.05,5.03,7.72,4.76,2.6-.19,5.07-1.29,7.59-1.86,3.46-.78,6.55-.65,9.98.22,4.69,1.2,9.28,2.8,13.93,4.1,2.42.68,5.03,1.62,7.28,2.72.36.18.67.38.97.59-3.23-1.22-6.59-2.11-9.98-2.67-6.75-1.1-15.91-3.18-22.47-.59-1.36.54-2.54,1.65-3.91,2.1-2.73.92-5.67-.19-8.28-.96-3.46-1.02-7.01-1.6-10.18-3.36-3.22-1.79-6.35-3.14-7.58-6.95-.15-.48-.32-1.97-.33-3.38.57-1.03,1.14-2.09,1.88-2.73,3.28-2.81,7.51.97,10.99.6,10.34-1.11,8.67-15.44,4.23-21.15-1.22-1.56-2.64-2.94-3.98-4.39,4.42-.96,9.42.62,13.1,3.16,3.67,2.53,5.32,7.16,9.22,9.47,4.02,2.38,9.82,2.62,14.28,3.84,5.23,1.43,10.22,2.99,15.3,4.73,1.06,5.11,2.07,10.22,2.98,15.36-1.77-1.19-3.87-1.69-5.92-2.46-5.69-2.15-11.8-2.96-17.71-4.51-6.11-1.61-11.57-1.68-17.57.36-1.47.5-2.92,1.11-4.46,1.39-1.73.32-3.42-.36-4.97-.22-.55.05-1.49-.12-1.9.39-.06.08-.12.15-.18.23-.28.35-.21.83-.06,1.22Zm-27.54-8.76c-1.11-2.09-1.94-4.83-2.53-7.08-1.51-5.79-.81-11.4-1.14-17.26-.09-1.54-.3-3.09-.59-4.63-.04-2.07-.29-4.13-.97-6.15-1.16-3.44-2.78-7.11-4.58-10.27-4.09-7.2-8.03-14.77-13.54-20.99-3.17-3.59-8.91-12.36-1.75-14.62,2.89-.91,4.17.49,6.96.83,1.67.2,3.8.2,5.37-.56.97-.47,1.72-1.2,2.34-2.06.31-.31.61-.66.9-1.1,1.18-1.83,1.57-4.08,2.41-6.06,1.57-3.68,5.66-3.63,8.61-1.57.77.92,1.36,2.07,1.86,3.24,1.7,3.96,4.29,7.35,3.81,11.9-.59,5.57-2,10.24-1.45,15.97.4,4.21,1.36,7.87,2.97,11.77,2.12,5.15,2.94,10.76,5.12,15.85,1.57,3.66,3.36,7.68,5.91,10.76,3.2,3.87,7.27,6.64,7.74,12.06.44,5.14-3.58,5.61-7.55,4.74-1.6-.35-3.2-.6-4.84-.38-3.85.51-5.17,3.14-7.34,5.96-2.5,3.24-5.6,3.68-7.72-.33Zm-28.73-54.61c.14-3.05.03-6.18-.26-9.32,1.87,2.3,3.95,4.48,5.53,6.6,1.81,2.43,2.86,5.2,4.45,7.77,1.54,2.49,3.24,4.9,4.7,7.44-3.16-1.04-6.27.24-9.08,2.02-.11.07-.14.24-.02.32,2.16,1.34,4.57,1.69,6.89,2.59,1.68.65,2.56,1.82,3.22,3.22-4.58-.11-10.43,2.54-13.85-.06-2.98-2.26-2.24-6.2-2.09-9.41.17-3.72.34-7.45.51-11.17Zm-3.07-31.6c-2.56-1.86-3.36-5.54-3.45-8.64-.2-7.79,4.26-12.75,12.17-12.74,2.54,0,4.98.3,7.47-.44,2.83-.84,5.47-2.61,7.94-4.17,5.44-3.45,10.5-7.75,15.03-12.32,4.65-4.7,8.1-10.42,12.53-15.29,2.74-3.02,5.15-6.17,9.7-6.02,3.29.11,8.22,2.17,9.84,5.17,1.39,2.59.13,5.63,1.2,8.34.94,2.38,3.17,3.61,5.06,5.16,7.86,6.45-3.54,14.93-9.29,17.14-6.7,2.58-14.2,1.05-20.26,5.06-2.85,1.89-5.15,3.54-7.1,6.33-.78,1.11-1.6,2.1-2.35,3.11-.34-.34-.7-.67-1.1-.98-.46-.36-.94-.68-1.44-.97,4.17-3.96,7.53-8.73,12.45-11.92,2.6-1.68,4.78-2.77,7.87-3.1,2.71-.29,5.76-.5,8.19-1.93,4.08-2.39,5.09-6.56,3.66-10.66-.14-.41-.64-.43-.82-.04-1.72,3.66-3.38,4.6-7.71,5.15-2.54.32-5.27.14-7.79.61-5.13.97-11.29,4.83-14.85,8.55-2.44,2.55-4.72,5.24-7.38,7.58-2.69,2.36-5.39,2.79-8.64,4.12-4.09,1.68-6.91,6.4-8.06,10.63-1.23-.21-2.45-.38-3.82-.34-3.03.1-6.38.9-9.04,2.6Zm-43.24-17.42c-.93-1.74-2.18-5.64-1.59-7.65.15-.49.35-.85.59-1.14.21-.16.41-.33.61-.51,1.59-.85,4.16.3,6.04-.15,1.8-.42,3.17-1.53,4.24-3.01,2.77-3.81,4.91-15.34,11.8-11.93,1.77.88,3.32,3.67,4.55,5.17.67.82,1.32,1.62,2,2.39-2.31,2.6-3.89,5.92-4.06,9.02-.42,7.61,4.48,12.4,7.38,18.99.51,1.17,1.04,2.32,1.56,3.48-5.06-4.71-11.2-8.78-17.27-11.77-.49-.24-.98.28-.63.74,4.4,5.82,8.19,11.48,13.37,16.71,2.87,2.9,4.49,4.84,4.89,9.09.04.39.09.76.15,1.14-7.41-8.99-17.41-16.34-26.76-23.28-2.62-1.95-5.32-4.36-6.89-7.29Zm-5.46-35.18c0-.81-.9-1.59-1.69-1.08-3.26,2.06-4.62,7.52-3.54,11.08.75,2.5,2.38,3.9,4.17,5.66,1.09,1.07,2.05,2.31,2.99,3.56-1.15.47-2.08,1.12-2.82,1.9-.31-.06-.63-.15-.98-.3-2.06-.88-3.79-2.97-5.3-4.57-2.61-2.78-3.17-3.84-3.13-7.7.1-8.29,4.61-15.03,6.21-22.9,1.56-7.69.7-15.54-.04-23.28-.39-4.05-1.52-8.87-.14-12.85.75-2.17,2.32-4.28,4.96-4.07,1.78.15,3.93,1.69,5.72,2.14,2.62.66,5.19,1.05,7.79.19,3.46-1.14,6.18-5.07,10.16-4.42,4.26.7,3.64,8.88,2.25,11.93-1.46,3.22-4.37,5.57-5.94,8.79-5.68,11.7-6.21,28.35-1.36,40.64-1.72.94-3.24,2.21-4.38,3.65-2.09,2.65-2.62,6.13-4.58,8.85-.27.37-.45.65-.59.86-.76-3.02-3.36-6.09-5.78-7.95-1.52-1.17-3.21-1.94-3.98-3.85-.88-2.18.02-4.1,0-6.29Zm-30.8-62.05c.96,1.25,2.05,2.41,3.24,3.41-.01,0-.03.02-.04.03-3.66.75-5.9-1.14-9.21-4.32-3.56-3.42-5.51-6.37-6.7-11.24-.97-3.97-1.94-7.26-4.27-10.67-2.34-3.42-4.98-6.59-6.95-10.25-.88-1.63-1.77-3.31-2.5-5.01-.02-.52-.07-.93-.14-1.27.57.09,1.13.22,1.69.39,4.56,1.14,8.69,3.4,12.93,5.34,3.65,1.68,7.67,2.14,11.34,3.81,2.54,1.16,6.8,2.43,8.98,4.81.05.09.09.18.14.27.33.61.69,1.22,1.06,1.84.02.09.06.17.08.26.15.72.56,1.25,1.09,1.59,1.56,2.38,3.31,4.7,5.05,6.8,1.19,1.43,2.51,3.08,3.99,4.53-1,.66-1.9,1.52-2.57,2.37-1.3,1.63-1.59,4.38-2.51,6.47-.25-.18-.52-.35-.83-.49-1.45-.64-3.02-.67-4.46-1.25-1.68-.68-3.18-1.99-4.76-2.85-1.45-.79-3.17-1.33-4.53-2.23-1.24-.82-2.22-2.03-3.31-3.02-.56-.51-1.49-.42-1.75.37-1.03,3.15,3.2,8.07,4.95,10.33Zm5.95,10.61c.92-2.92,3.05-2.13,5.31-2.18,2.33-.05,4.44-.47,6.32-1.97,2.7-2.15,2.96-5.72,4.14-8.63.01.04.02.08.03.12.61,2.04,1.61,3.55,2.87,4.61-4.09,3.29-5.31,9.73-5.06,14.6.12,2.3.41,4.58.66,6.87-.04.01-.08.02-.11.03-.16-.03-.35-.07-.39-.08-.72-.26-1.51-.43-2.24-.63-.92-.25-1.84-.49-2.76-.73-1.98-2.05-4.05-4.01-6.23-5.91-1.74-1.52-3.34-3.57-2.54-6.09Zm173.46,55.04c-1.29.28-2.79.14-4.13.38-1.53.27-3.08.49-4.62.76-3.09.55-6.24.74-9.33,1.31-.36.07-.66.18-.94.31-1.21-1.24-2.26-2.63-2.57-4.94-.23-1.69-.36-3.23-.76-4.7,1.26-3.03,2.55-4.75,6.7-5.95,3.87-1.12,7.46-1.89,11.56-1.17,4.01.71,8.36,2.53,12.31,3.68,4.03,1.18,8,2.29,12.16,2.9.97.14,4.69-.04,5.39.79,2.32,2.74-4.52,4.64-5.73,5.04-3.42,1.14-6.87,2.49-10.17,3.96-4.23,1.89-7.66,5.06-11.63,7.37-2.58,1.5-8.83,4.18-11.26,1.42-.33-.38-.69-.65-1.05-.83-.07-.38-.18-.76-.29-1.14,2.54-.23,5.25-1.05,7.24-2,3.15-1.5,5.23-3.66,7.8-5.88.59-.51.05-1.46-.68-1.31Zm-15.94-67.69c-3.99,7.27-9.07,18.37-17.96,20.17-.21-.47-.47-.92-.77-1.36.83-.67,1.54-1.45,2.07-2.19,1.31-1.85,2.98-4.65,2.98-6.98,0-.9-1.09-1.22-1.62-.53-1.12,1.47-2.83,2.65-4.5,3.37-.73.31-1.5.5-2.24.81-.7.29-1.32.77-2.05.95-.65.16-1.16.47-1.54.87-1.97-.11-4,.06-5.91-.48-3.16-.89-5.08-3.69-7.78-5.47-.23-.69-.37-1.42-.28-2.2.66-5.66,8.33-6.82,12.7-7.45,9.27-1.34,16.06-5.65,23.42-11.11,1.66-1.23,3.44-2.71,5.18-3.82,1.8-1.15,1.32-.97,1.37,1.14.1,4.92-.68,9.92-3.07,14.27Zm-33.71,21.24c3.41.99,9.7-.95,9.83,3.9.23,8.28-11.26,10.78-16.11,15.2-4.86,4.44-6.64,12.95-9.19,18.88-1.69,3.94-3.1,7.98-4.2,12.13-.46,1.74-.63,5.27-1.62,7.72-1.26,1.12-2.55,2.2-3.87,3.23-.51-1.21-1.22-2.27-2.09-3.17,1.39-3.55,2.96-7.01,4.02-10.69,1.01-3.49.74-7.14,1.52-10.67.25-1.12-1.11-2.38-2.08-1.35-2.3,2.44-3.13,6.47-4.99,9.35-2.12,3.28-4.38,6.21-5.74,9.77-1.34-.2-2.72-.23-4.08-.06-4.41.57-6.87,4.73-11.55,3.69-2.38-.53-4.09-1.43-6.34-1.39-1.26-2.06-1.7-4.77-1.28-6.81.57-2.82,2.48-5.8,3.86-8.35,1.76-3.26,4.11-4.27,6.98-6.28,3.2-2.24,6.15-4.96,9.12-7.49,6.23-5.31,10.56-11.06,14.22-18.39,2.88-5.78,5.7-21.9,15.39-14.82,2.8,2.05,4.67,4.54,8.19,5.56Zm-30.92,65.2c-.42.27-.83.55-1.26.81-6.82,4.17-15.19.54-22,5.68-2.82,2.13-4.66,5.31-5.61,8.82-.24-.5-.48-.99-.75-1.5-1.44-2.67-2.71-5.32-2.19-8.46.48-2.89,3.69-7.3,6.89-7.3,2.97,0,5.37,1.96,8.55,1.67,2.72-.25,4.89-1.35,7.17-2.75,3.46-2.13,8.16-1.7,9.2,3.02Zm-13.92-40.12c-.88.73-1.75,1.51-2.63,2.27-.11-.1-.21-.2-.32-.3-5.4-5.23-11.52-9.71-17.39-14.4-2-1.6-3.86-3.46-5.64-5.44.96-1.34,2-2.62,2.93-4,3.39,4.17,7.97,7.69,11.96,11.1,4,3.42,8.13,6.61,12.22,9.84-.38.31-.75.62-1.13.92Zm-16.8,15.75s-.02.04-.03.05c-1.82,3.21-3.33,5.59-3.42,9.29-.22-.26-.45-.51-.69-.76-2.52-4.76-5.78-11.02.89-13.04,1.08-.33,2.14-.47,3.18-.63.03.42.06.84.08,1.26.06,1.28.03,2.55-.01,3.83Zm-8.5-16.24c.03.08.06.16.08.24-1.46,1.39-2.78,3.11-3.68,4.18-.63.75-1.36,1.6-2.04,2.51-.14-2.69-.08-5.44.22-8.34.29-2.81.69-5.65,1.39-8.4.23.49.46.98.65,1.47.46,1.17,1.12,2.15,1.69,3.26.82,1.61,1.16,3.37,1.69,5.08Zm.22-64.79c-.56,4.27-.5,8.58-.87,12.86-.13,1.48-.31,2.91-.68,4.35-.26,1.04-1.25,2.37-.39,2.49-.31.14-.61.32-.88.54-.43-.09-.88-.16-1.32-.2.65-4.24-.3-8.66-2.61-12.3-.47-.74-1.52-.69-1.85.15-.38.97-.23,1.56-.28,2.58-.07,1.3-.52,2.61-.81,3.87-.44,1.9-.84,3.8-1.26,5.7-.38.4-.56.88-.61,1.39-.16.08-.33.16-.49.24-1.44.79-2.95,2.4-4.52,2.93-2.24.75-5.09-.36-7.17-1.2-1.48-.59-2.95-1.25-4.45-1.59-2.82-2.33-3.91-5.4-3.48-9.54.57-5.57,5.61-7.56,10.02-10.19,6.48-3.86,10.3-8.54,14.32-14.87.75-1.19,1.63-3.29,2.76-4.13,3.31-2.46,5,.72,5.73,3.46,1.15,4.3-.59,9.15-1.15,13.43Zm87.85,127.93c.06.02.12.04.17.06.15-.03.17.03.02,0,.42.12.84.04,1.22-.16,4.16,2.95,8.18,6.09,11.4,9.82,2.38,2.75,4.69,5.59,6.96,8.42.52.65,1.06,1.27,1.59,1.88-2.51-.5-5.05-.82-7.53-1.57-2.12-.64-3.93-1.79-5.69-3.02-2.25-5.18-6.48-7.68-12-8.56-.63-.1-1.28-.16-1.95-.21.04-.05.08-.11.12-.16.7-1.08,1.32-2.25,2.19-3.21.73-.81,1.6-1.55,2.42-2.28.27-.24.55-.46.82-.69.18-.17.33-.23.42-.25-.04-.01-.1-.03-.17-.06Zm12.97,44.2c-2.96-.89-5.96-2.49-8.83-4.38-1.07-1.74-2.06-3.46-3.67-5.01-1.96-1.89-4.09-3.78-6.29-5.38-5.88-4.29-14.59-2.91-19.45,2.11-.22-3.03-.08-6.08.42-8.98.17-.26.29-.56.32-.94,0-.09,0-.17.01-.25,1-1.53,3.7-3.14,4.94-4.1,2.42-1.86,5.2-2.95,8.25-3.27,5.76-.59,11.07.44,13.6,6,2.19,4.8,4.41,6.86,9.37,8.66,5.37,1.95,10.99,3.03,16.59,4.07.84,5.04,2.46,10.19,3.37,14.77.1.51.22,1.01.32,1.51-6.43-1.34-12.64-2.9-18.96-4.81Zm21.66,16.98c.74,3.23,1.48,6.47,2.13,9.73.53,2.64,1.08,5.27,1.63,7.9-5.54-2.61-11.74-2.68-17.69-4.17-3.57-.9-6.9-2.52-10.14-4.21-.82-.43-1.62-.91-2.43-1.38-3.52-3.29-7.93-5.36-12.85-6.15-2.98-.48-7.19-.07-9.54,2.14-.61-1.26-1.13-2.57-1.74-3.88-2.87-6.21-4.33-12.98-6.93-19.35-.34-.83-.64-1.69-.9-2.56,2.07-4.29,8.57-6.59,12.78-4.51,4.93,2.44,7.98,7.21,11.12,11.39,3.06,4.08,8.57,6.1,13.04,8.26,5.1,2.46,10.57,3.85,16.01,5.34,1.84.5,3.69.97,5.53,1.45Zm100.52-47.38c-.96,2.53-2.21,4.56-4.02,6.55-.72.79-2.17,3.09-3.19,3.45-.7.24-1.21.66-1.57,1.17-1.19-1.21-2.55-2.31-3.88-3.26,2.37-2.04,3.85-5.29,5.25-7.96,2.45-4.66,2.79-10.92,1.55-15.98-.31-1.25-2.03-1.3-2.47-.12-1.45,3.89-2.23,7.77-4.44,11.38-1.23,2-3.32,6.46-5.62,7.36-.79.31-1.32.82-1.64,1.42-4.8-1.82-9.89-2.63-15.02-3-2.07-1.38-4.23-2.69-5.29-4.97-1.77-3.82.21-9.54,2.93-12.41,2.11-2.23,5.17-3.22,7.22-5.52,2.55-2.87,3.61-6.93,4.28-10.61,1.45-8,.54-16.84.01-24.91-.18-2.77-.94-8.95,1.83-10.99,3.27-2.41,7.3,1.79,10.63,2.1,3.63.34,7.28-1.81,10.92-2.02,5.34-.3,7.05,4.19,6.8,8.77-.22,4.06-2.98,7.82-4.39,11.62-1.25,3.38-2.07,6.92-2.39,10.52-.72,8.27,3.2,15.39,4.4,23.36.65,4.33-.38,9.99-1.92,14.06Zm-34.39,24.65c-7.15-.33-14.14-3.33-20.88-5.59-6.47-2.17-13.37-4.53-20.04-5.95-2.79-.6-5.84-.78-8.54-1.73-2.17-.76-3.32-1.85-5.52-1.82.05-1.45.28-2.92.83-4.4,1.28-3.45,3.62-6.92,5.27-10.25.04-.08.08-.17.12-.25,2.54,3.64,5.88,7.12,9.87,8.68,6.39,2.5,13.92,4.53,20.79,4.67,7.79.16,15.52-.27,23.27.8,3.93.54,8.71,2.17,12,4.4,1.22.82,4.06,2.98,5.14,4.48-2.2,1.37-4.23,3.16-6.18,5.08-.2.2-.38.41-.58.61-5.17.68-10.34,1.51-15.58,1.27Zm1.04,17.71c-1.4,2.1-2.6,4.4-3.34,6.81-8.15-.26-16.36-3.1-24.24-5.44-4.33-1.29-8.42-2.72-12.91-3.45-2.83-.46-5.76-.79-8.54-1.49-.54-.14-1.05-.31-1.56-.49-1.36-5.26-2.7-10.54-3.91-15.83,0-.1-.02-.21-.03-.31.72.17,1.43.35,2.15.55,6.24,1.76,12.69,3.19,18.83,5.25,5.99,2.01,11.82,4.67,17.66,7.09,5.54,2.31,10.79,4.29,15.89,7.3Zm6.54-138.27c-.2,1.86-.87,3.62-1.58,5.49-.68,1.78-1.38,3.63-1.7,5.66-.48,3.02-.09,6.2,1.06,8.86-1.02.68-1.93,1.5-2.68,2.42-4.33,5.31-3.57,13.65-2.95,20.36.11,1.2.21,2.34.28,3.39.04.67.09,1.34.13,2.01.26,3.83.51,7.44.14,11.1-.2,1.99-.6,4.91-1.74,7.19-.73,1.46-1.76,2.08-3.32,3.01-.42.25-.85.51-1.29.8-7.2,4.65-11.15,13.59-9.6,21.75.17.88.46,1.79.88,2.7-.67,0-1.34,0-2.02,0-4.23-.01-7.9-1-12.15-2.15l-.76-.2c-.71-.19-1.43-.36-2.15-.53-2.6-.62-5.06-1.2-6.86-2.74-.45-.38-.87-.75-1.28-1.11-1.21-1.07-2.37-2.09-3.76-3.03.8-1.56,1.73-3.35,2.7-5.1,3.08-5.56,6.19-11.1,9.3-16.63,5.08-9.05,10.34-18.41,15.35-27.7l1.67-3.1c3.65-6.8,7.1-13.22,11.26-19.62,3.4-5.24,5.83-11.02,8.19-16.6.94-2.24,1.91-4.54,2.94-6.78.3,4.16.28,7.49-.06,10.59Zm34.76-14.46c-2.27,6.4-4.62,12.58-5.85,19.29-.49,2.68-.77,5.27-.52,8,.2,2.25.99,5.64.46,8.24-.75-.26-1.52-.45-2.26-.54-1.29-.15-2.57-.04-3.84.19.8-1.67,1.29-3.52,1.38-5.01.24-4.17-.26-8.65-1.35-12.67-.07-.26-.43-.28-.53-.03-1.42,3.75-2.66,13.49-6.99,14.91-1.63.53-3.79-.58-5.54-.12-.57.15-.98.54-1.42.84-.32,0-1.46.22-1.7.3-.38.14-.73.33-1.04.57-.47-1.79-.68-3.66-.66-4.51.07-2.94,1.55-5.43,2.46-8.18,1.79-5.41,1.99-11.41,1.6-17.07-.42-6.08-.96-12.56-.12-18.64.43-3.09,2.77-7.84,6.74-6.99,2.53.54,4.89,2.89,7.61,3.53,2.25.53,4.27.48,6.55.09,2.04-.35,6.23-1.49,8.09-.09,4.35,3.25-1.79,14.25-3.08,17.87Zm.78-25.08s-.04.06-.06.09c-.63-.02-1.25,0-1.88.04,1.65-4.08,1.75-8.32.14-12.91-.36-1.01-1.63-1.12-2.07-.1-1.12,2.57-1.45,5.35-2.71,7.93-.88,1.81-2.63,3.66-3.26,5.6-2.05-.27-3.78-1.09-6.34-2.42-2.09-1.08-4.2-1.36-6.19-1.05,2.57-5.38,5.14-10.76,7.68-16.15,4.11-8.72,8-17.34,10.98-26.54.01-.03.02-.07.03-.1,1.81-.79,4.01-.75,5.24.85,1.07,1.4.52,5.35.47,7.07-.1,4.07-.69,8.18-.54,12.25.31,8.4,4.54,18.15-1.5,25.44Zm-78.6,238.76c-.2-1.25-.41-2.49-.6-3.74-.96-6.43-2.21-12.8-3.57-19.14,6.64,2.51,14.97,2.07,21.45,4.55.19,2.97,1.32,5.99,2.47,8.62.19.43.37.85.54,1.27-.37,4.13-2.09,8.66-4.34,10.68-2.12-.31-4.17-.95-6.3-1.18-3.16-.34-6.46-.83-9.65-1.04Zm68.69-45.96c-1.46-.8-3.13-1.29-5.08-1.57-5.61-.81-9.93,1.47-15.35,2.29-2.23.34-4.8-.04-7.07.35-1.2-1.28-1.69-2.97-1.33-5.27.47-2.95,1.78-5.62,3.61-7.94,3.51-4.45,6.4-9.21,9.81-13.71,3.73-4.94,9.3-10.85,15.94-8.94,5.12,1.47,9.47,4.82,14.33,6.87,2.95,1.25,5.93,1.9,8.53,3.89,2.19,1.67,4.05,4.03,5.62,6.28,2.21,3.17,3.28,5.95,1.63,9.63-1.09,2.42-2.59,4.34-4.22,6.39-1.94,2.45-3.63,4.9-5.89,7.06-1.56,1.49-2.64,2.79-3.67,4.71-.61,1.13-1.27,2.6-2.04,4.08,0-.09,0-.17-.02-.26-.22-2.38-1.86-4.79-1.62-7.11.31-3.01,3.42-5.38,5.28-7.44,1.42-1.57,2.68-3.35,3.84-5.12,2.85-4.32,3.29-9.16-.94-12.8-3.48-2.99-7.47-2.85-11.72-2.34-.45.05-.4.69-.04.82,4.05,1.51,7.21,6.16,4.44,9.86-2.42,3.24-5.68,5.67-8.03,8.99-1.91.67-3.94,1.06-6.02,1.3Z"/>
        <path d="m279.93,109.01c-.21-.01-.22.31-.02.32.21.01.22-.31.02-.32Z"/>
        <path d="m307.89,306.62c-.1,3.55-.82,5.77-3.56,8.1-1.58,1.34-2.81,2.59-3.87,4.41-2.38,4.07-3.5,9.32-3.52,14.01-.02,3.71,1.66,7.62-.4,10.81-1.74,2.7-3.12,2.52-6.17,1.98-2.64-.46-4.34-.91-6.56-2.5-1.67-1.19-3.79.88-2.89,2.62,1.46,2.8,3.08,3.89,5.76,5.31,2.7,1.42,5.09,3.4,8.25,3.55,6.29.31,10.52-5.51,11.55-11.22.6-3.3-.51-6.79-.57-10.11-.08-4.06.86-8.34,2.79-11.92,3-5.59,3.26-9.73-.55-15.14-.08-.11-.26-.03-.27.09Z"/>
        <path d="m155.33,291.7c-1.44-1.4-.82-5.3-.89-7.08-.12-3.11-.56-5.93-1.28-8.95-1.45-6.16-4.51-10.75-7.75-16.06-.34-.55-1.37-.28-1.14.41,2.33,7.01,2.76,14.03,2.71,21.36-.03,5.03-.02,11.63,4.26,15.11,2.78,2.26,6.66-2.29,4.08-4.79Z"/>
        <path d="m134.95,235.74c-.42-.57-.95-1.06-1.4-1.61-.91-1.14-1.65-2.44-2.22-3.79-.71-1.68-3.03-2.01-4.39-1.06-1.58,1.1-1.59,3.03-.53,4.49.96,1.31,2.11,2.56,3.54,3.36.69.39,1.42.71,2.15,1.01.76.31,1.15.77,1.76,1.3,1.1.98,2.76-.07,2.14-1.49-.34-.77-.54-1.52-1.05-2.2Z"/>
        <path d="m153.62,135.21c-.28.56.25,1.41.91,1.01.48-.29,1.02-.31,1.54-.57,1.09-.54,1.82-.99,3.02-1.2,1.76-.32,3.47-.79,5.18-1.25,4.3-1.17,1.94-7.73-2.1-5.74-1.06.52-2.02.86-2.95,1.64-.75.63-1.52,1.27-2.23,1.94-.77.73-1.5,1.51-2.1,2.38-.42.6-.94,1.12-1.27,1.79Z"/>
        <path d="m70.34,132.08c1.33-3.78,1.18-7.63,1.58-11.59.38-3.78-5.79-4.12-5.91-.29-.06,2.03,0,3.9.71,5.83.75,2.03,1.25,3.84,1.68,5.96.2,1,1.62,1.01,1.94.09Z"/>
        <path d="m309.7,168.28c.1,1.47.4,2.94.4,4.42,0,1.29.08,2.98-.3,4.2-.24.76.8,1.26,1.25.6.93-1.35,2.08-2.22,2.67-3.86.58-1.61.73-3.43.97-5.11.47-3.23-5.22-3.45-5-.24Z"/>
        <path d="m321.38,100.65c-1.68-.08-2.61,1.4-2.47,2.93.15,1.63.81,3.72-.16,5.18-.42.64.3,1.23.91,1.01,2.51-.93,3.48-3.75,3.89-5.96.28-1.51-.47-3.08-2.17-3.16Z"/>
        <path d="m296.58,298.17c.79,1.05,1.74,1.86,2.73,2.72,1.26,1.09,3.01,1.42,4.35.21,1.26-1.14,1.31-3.09.21-4.35-1.11-1.27-3.07-2.04-4.64-2.62-1.54-.57-3.76-.75-5.18.19-.53.35-.78,1.08-.29,1.6.86.9,2.06,1.24,2.82,2.25Z"/>
        <path d="m252.4,422.62c1.74,1.94,4.35,1.66,6.62,1.21,2.43-.49,2.75-4.34.24-4.99-.72-.19-1.48-.36-2.22-.42-.02,0-.06,0-.12,0-.02-.46-.08-.88-.22-1.28-.1-.37-.27-.72-.52-1.02-.01-.02-.02-.03-.03-.05,0,0,0,0-.01,0-.14-.16-.3-.31-.5-.44-.91-.59-2.39-.58-3.17.25-1.56,1.67-1.64,5.01-.08,6.74Z"/>
        <path d="m284.7,51.13c.53.69,1.17.96,1.86,1.45.73.52,1.23.84,1.66,1.47-.33-.33.08,1.49,0,2.23-.13,1.38-.26,2.75-.41,4.12-1.12,3.83-1.16,7.67-2.31,11.5-.39,1.32,1.38,2.76,2.42,1.57,4.5-5.09,8.48-10.37,10.79-16.88,1.16-3.28,1.78-6.45,3.61-9.5,1.73-2.9,4.36-5.09,6.2-7.89,1.89-1.56,3.64-3.32,5.7-5.23,1.4-1.29.15-3.52-1.66-3.19-4.44.79-8.4,3.37-12.47,5.19-4.46,1.98-8.52,4.32-12.84,6.59-4.56,2.39-9.75,3.66-14.57,5.43-5.15,1.89-10.6,5.21-15.92,6.2-.49.09-.39.79.07.84,5.04.59,10.67-.55,15.65-1.31,4.05-.62,8.18-1.49,12.15-2.69.02.03.04.06.06.08Z"/>
        <path d="m259.24,15.79c-10.68,1.39-21.4,1.65-32.08,2.87-10.41,1.18-20.65,4.65-30.63,7.68-.61.19-.63,1.23.1,1.2,10.78-.37,21.55-2.57,32.26-3.64,10.28-1.03,21.99-.43,31.63-4.59,2.09-.9.7-3.78-1.29-3.52Z"/>
        <path d="m183.73,209.45s0,0,0,0c.01,0,.02,0,.02,0,0,0-.01,0-.02,0Z"/>
      </g>
      <path class="cls-3" d="m270.81,108.12c-.14-.58-.98-.38-.89.2,1.24,8.02-10.9,12.61-16.67,14.21-7.12,1.98-13.92,4.59-21.29,5.64-7.4,1.05-14.77,1.98-22.25,1.32-6.19-.54-12.26-1.74-18.44-2.34-.18-.02-.23.26-.06.31,7.23,2.12,14.74,4.45,22.3,4.96,8.47.57,18.16-.77,26.38-2.83,4.49-1.13,8.7-2.96,13.14-4.23,3.6-1.03,7.29-2.26,10.34-4.49,4.18-3.06,8.77-7.08,7.44-12.75Z"/>
      <path class="cls-3" d="m130.36,114.37c-6.02-5.38-15.15-5.23-22.71-5.71-.25-.02-.34.38-.08.45,7.03,1.81,15.24,2.67,21.26,7.06,1.07.78,2.55-.89,1.53-1.8Z"/>
      <path class="cls-3" d="m267.57,115.57s-.07.05-.1.08c-.04.03-.04.09-.02.14-.4-1-4.02,3.09-6.42,6.05-.55-.75-1.61-1.11-2.48-.27-4.24,4.11-8.89,11.23-9.2,17.3-.04.83.49,1.5,1.23,1.79,4.01,1.61,6.13-4.64,7.42-7.22,1.24-2.5,2.57-4.93,3.71-7.47,1.69-3.76,4.19-6.54,6.32-10,.18-.3-.19-.61-.46-.39Z"/>
      <path class="cls-3" d="m234.55,177.81c-.88.03-1.01.65-1.56,1.4-2.07,2.78-3.7,6.09-5.39,9.11-1.81,3.23-3.94,6.27-5.75,9.51-2.1,3.76-3.62,7.39-8.51,7.51-2.42.06-2.55,3.39-.18,3.72,7.27,1.04,9.66-5.01,12.56-10.61,1.78-3.43,3.73-6.7,5.24-10.26.8-1.89,1.68-3.76,2.42-5.68.19-.5.89-3.67,1.25-3.78.47-.14.48-.94-.08-.93Z"/>
      <path class="cls-3" d="m220.7,132.66c-.28,2.44-.59,4.41-.29,6.89.24,2.02.46,3.94.81,5.96.07.41.72.45.82.04.53-2.11,1.74-3.76,2.35-5.8.64-2.13,1.21-4.61,1.37-6.83.23-3.28-4.69-3.46-5.06-.25Z"/>
      <path class="cls-3" d="m253.28,102.78c-6.04-1.04-12.51.18-18.46,1.37-7.11,1.42-14,4.32-20.26,7.89-.3.17-.15.71.22.6,12.58-3.73,25.23-7.33,38.41-8,1.21-.06,1.27-1.66.09-1.87Z"/>
    </g>
  </g>
</svg>